<svg width="254" height="44" viewBox="0 0 254 44" fill="none" xmlns="http://www.w3.org/2000/svg">
<path d="M0 27.9786L15.3614 35.983L14.6106 18.6787L0 27.9786ZM254 17L238.639 8.99564L239.389 26.2999L254 17ZM9.13645 29.0851L15.1841 28.8237L15.054 25.8265L9.0064 26.0879L9.13645 29.0851ZM21.2317 28.5623L27.2793 28.3009L27.1493 25.3037L21.1016 25.5651L21.2317 28.5623ZM33.3269 28.0395L39.3746 27.7781L39.2445 24.7809L33.1969 25.0423L33.3269 28.0395ZM45.4222 27.5167L51.4698 27.2553L51.3397 24.2581L45.2921 24.5195L45.4222 27.5167ZM57.5174 26.9939L63.565 26.7325L63.435 23.7353L57.3874 23.9967L57.5174 26.9939ZM69.6126 26.4711L75.6603 26.2097L75.5302 23.2126L69.4826 23.474L69.6126 26.4711ZM81.7079 25.9483L87.7555 25.687L87.6255 22.6898L81.5778 22.9512L81.7079 25.9483ZM93.8031 25.4256L99.8508 25.1642L99.7207 22.167L93.6731 22.4284L93.8031 25.4256ZM105.898 24.9028L111.946 24.6414L111.816 21.6442L105.768 21.9056L105.898 24.9028ZM117.994 24.38L124.041 24.1186L123.911 21.1214L117.864 21.3828L117.994 24.38ZM130.089 23.8572L136.136 23.5958L136.006 20.5986L129.959 20.86L130.089 23.8572ZM142.184 23.3344L148.232 23.073L148.102 20.0758L142.054 20.3372L142.184 23.3344ZM154.279 22.8116L160.327 22.5502L160.197 19.553L154.149 19.8144L154.279 22.8116ZM166.375 22.2888L172.422 22.0274L172.292 19.0303L166.245 19.2916L166.375 22.2888ZM178.47 21.766L184.517 21.5046L184.387 18.5075L178.34 18.7689L178.47 21.766ZM190.565 21.2432L196.613 20.9819L196.483 17.9847L190.435 18.2461L190.565 21.2432ZM202.66 20.7205L208.708 20.4591L208.578 17.4619L202.53 17.7233L202.66 20.7205ZM214.756 20.1977L220.803 19.9363L220.673 16.9391L214.625 17.2005L214.756 20.1977ZM226.851 19.6749L232.898 19.4135L232.768 16.4163L226.721 16.6777L226.851 19.6749ZM238.946 19.1521L244.994 18.8907L244.864 15.8935L238.816 16.1549L238.946 19.1521ZM0 27.9786L30.7229 43.9873L29.2212 9.37888L0 27.9786ZM254 17L223.277 0.991264L224.779 35.5997L254 17ZM9.20148 30.5837L15.2491 30.3223L14.989 24.3279L8.94138 24.5893L9.20148 30.5837ZM21.2967 30.0609L27.3443 29.7995L27.0842 23.8051L21.0366 24.0665L21.2967 30.0609ZM33.392 29.5381L39.4396 29.2767L39.1795 23.2823L33.1319 23.5437L33.392 29.5381ZM45.4872 29.0153L51.5348 28.7539L51.2747 22.7595L45.2271 23.0209L45.4872 29.0153ZM57.5824 28.4925L63.63 28.2311L63.3699 22.2368L57.3223 22.4982L57.5824 28.4925ZM69.6777 27.9697L75.7253 27.7083L75.4652 21.714L69.4176 21.9754L69.6777 27.9697ZM81.7729 27.4469L87.8205 27.1855L87.5604 21.1912L81.5128 21.4526L81.7729 27.4469ZM93.8682 26.9241L99.9158 26.6628L99.6557 20.6684L93.6081 20.9298L93.8682 26.9241ZM105.963 26.4014L112.011 26.14L111.751 20.1456L105.703 20.407L105.963 26.4014ZM118.059 25.8786L124.106 25.6172L123.846 19.6228L117.799 19.8842L118.059 25.8786ZM130.154 25.3558L136.201 25.0944L135.941 19.1L129.894 19.3614L130.154 25.3558ZM142.249 24.833L148.297 24.5716L148.037 18.5772L141.989 18.8386L142.249 24.833ZM154.344 24.3102L160.392 24.0488L160.132 18.0544L154.084 18.3158L154.344 24.3102ZM166.44 23.7874L172.487 23.526L172.227 17.5317L166.18 17.7931L166.44 23.7874ZM178.535 23.2646L184.582 23.0032L184.322 17.0089L178.275 17.2703L178.535 23.2646ZM190.63 22.7418L196.678 22.4804L196.418 16.4861L190.37 16.7475L190.63 22.7418ZM202.725 22.219L208.773 21.9577L208.513 15.9633L202.465 16.2247L202.725 22.219ZM214.821 21.6963L220.868 21.4349L220.608 15.4405L214.56 15.7019L214.821 21.6963ZM226.916 21.1735L232.963 20.9121L232.703 14.9177L226.656 15.1791L226.916 21.1735ZM239.011 20.6507L245.059 20.3893L244.799 14.3949L238.751 14.6563L239.011 20.6507Z" fill="#FD0606"/>
</svg>
