<svg width="164" height="90" viewBox="0 0 164 90" fill="none" xmlns="http://www.w3.org/2000/svg">
<g clip-path="url(#clip0_309_168)">
<rect width="83" height="130" transform="translate(0 -40)" fill="#F80B0B"/>
<rect y="-40" width="566" height="546" fill="#D9D9D9"/>
</g>
<rect x="77" y="-40" width="87" height="130" fill="#294DA9"/>
<path d="M29.3086 12.7393C29.5866 13.0173 29.7256 13.196 29.7256 13.2754C29.7256 13.3548 29.7454 13.4342 29.7852 13.5137C29.8646 13.7917 29.8844 14.0697 29.8447 14.3477C29.8447 14.6257 29.8249 14.9632 29.7852 15.3604C29.7454 15.5589 29.7256 15.7376 29.7256 15.8965C29.7653 16.0553 29.7653 16.1943 29.7256 16.3135C29.6859 16.4326 29.6263 16.5518 29.5469 16.6709C29.5072 16.7503 29.4674 16.8298 29.4277 16.9092C29.388 17.1872 29.3682 17.3857 29.3682 17.5049C29.4079 17.624 29.4079 17.7233 29.3682 17.8027C29.249 18.1602 29.2093 18.4183 29.249 18.5771C29.2887 18.6963 29.3086 18.8353 29.3086 18.9941C29.3086 19.4707 29.249 19.7487 29.1299 19.8281C29.0505 19.8678 29.0107 19.9274 29.0107 20.0068C29.0902 20.2054 29.11 20.3643 29.0703 20.4834C29.0306 20.6025 28.9909 20.7614 28.9512 20.96C28.8717 21.3968 28.7923 21.6947 28.7129 21.8535C28.6732 21.9727 28.6335 22.1117 28.5938 22.2705C28.4349 22.5485 28.3158 22.7074 28.2363 22.7471C28.1966 22.7868 28.1569 22.8464 28.1172 22.9258C27.7201 23.0052 27.4619 23.0449 27.3428 23.0449C27.2236 23.0052 27.1045 22.9854 26.9854 22.9854C26.5088 22.9854 26.2109 22.9655 26.0918 22.9258C26.0124 22.8464 25.9131 22.7868 25.7939 22.7471C25.6748 22.6676 25.5358 22.6478 25.377 22.6875C25.2578 22.7272 25.1188 22.7074 24.96 22.6279C24.6025 22.5485 24.3047 22.5286 24.0664 22.5684C23.8678 22.5684 23.6494 22.5684 23.4111 22.5684C23.2126 22.5684 23.014 22.5684 22.8154 22.5684C22.6566 22.5286 22.4779 22.4691 22.2793 22.3896C22.1602 22.4691 22.0212 22.4889 21.8623 22.4492C21.7035 22.4095 21.5247 22.3896 21.3262 22.3896C21.207 22.3499 21.068 22.3499 20.9092 22.3896C20.79 22.4294 20.651 22.4294 20.4922 22.3896C20.4128 22.6279 20.373 22.8662 20.373 23.1045C20.4128 23.3031 20.4326 23.5215 20.4326 23.7598C20.3929 24.1966 20.373 24.415 20.373 24.415L20.4922 25.1895C20.4922 25.3086 20.4922 25.4277 20.4922 25.5469C20.5319 25.666 20.5518 25.7852 20.5518 25.9043C20.5518 26.1029 20.5319 26.3213 20.4922 26.5596C20.4525 26.7979 20.4326 27.0163 20.4326 27.2148L20.6113 28.2871C20.6113 28.6048 20.5716 28.9027 20.4922 29.1807C20.4525 29.4189 20.4723 29.6572 20.5518 29.8955C20.512 30.3324 20.5319 30.6699 20.6113 30.9082C20.6113 31.1068 20.5915 31.2855 20.5518 31.4443C20.5518 31.6032 20.5716 31.7422 20.6113 31.8613C20.5319 32.3379 20.512 32.6556 20.5518 32.8145C20.5915 32.9733 20.6113 33.0924 20.6113 33.1719C20.6113 33.291 20.5915 33.4102 20.5518 33.5293C20.512 33.6484 20.4922 33.7676 20.4922 33.8867C20.4922 34.2839 20.512 34.542 20.5518 34.6611C20.5915 34.7406 20.5716 34.82 20.4922 34.8994C20.5716 35.1774 20.6113 35.4355 20.6113 35.6738C20.6113 35.9121 20.6312 36.1702 20.6709 36.4482C20.7106 36.766 20.7503 36.9447 20.79 36.9844C20.8298 37.0241 20.8496 37.0638 20.8496 37.1035C20.8099 37.3418 20.8298 37.5801 20.9092 37.8184V38.5928C20.9092 38.9105 20.8893 39.2282 20.8496 39.5459C20.8496 39.8636 20.8695 40.2012 20.9092 40.5586C20.9092 40.7572 20.8893 40.9359 20.8496 41.0947C20.8496 41.2139 20.8893 41.333 20.9688 41.4521C20.9688 41.8493 20.9489 42.0677 20.9092 42.1074C20.9092 42.1471 20.9092 42.2067 20.9092 42.2861C20.9886 42.8024 20.9886 43.4378 20.9092 44.1924L20.9688 45.3242V45.9795C20.9688 46.2575 20.9688 46.5355 20.9688 46.8135C21.0085 47.0518 21.0283 47.3099 21.0283 47.5879C21.068 48.2233 21.1077 48.6006 21.1475 48.7197C21.1872 49.1963 21.1872 49.4941 21.1475 49.6133C21.1475 49.7324 21.1475 49.8317 21.1475 49.9111C21.1872 50.1097 21.207 50.3083 21.207 50.5068C21.207 50.6657 21.2269 50.8245 21.2666 50.9834C21.3063 51.46 21.3262 51.7578 21.3262 51.877C21.3659 51.9564 21.3857 52.0755 21.3857 52.2344L21.4453 53.0684C21.485 53.6641 21.5247 54.0413 21.5645 54.2002C21.7233 54.7165 21.763 55.054 21.6836 55.2129C21.6836 55.4115 21.7035 55.5505 21.7432 55.6299C21.7829 55.7093 21.8226 55.7887 21.8623 55.8682C21.7829 56.2256 21.7432 56.444 21.7432 56.5234C21.7829 56.6029 21.8027 56.7021 21.8027 56.8213C21.485 57.0993 21.2666 57.2383 21.1475 57.2383C21.068 57.278 20.9886 57.2979 20.9092 57.2979H19.9561C19.6781 57.3376 19.2809 57.3376 18.7646 57.2979H17.6924C17.2952 57.3376 17.0768 57.3376 17.0371 57.2979C16.9974 57.2979 16.9378 57.2979 16.8584 57.2979C16.5407 57.2979 16.3223 57.2979 16.2031 57.2979C16.084 57.3376 15.9648 57.3574 15.8457 57.3574C15.3294 57.3971 15.0117 57.417 14.8926 57.417C14.8132 57.4567 14.7139 57.4964 14.5947 57.5361C14.1976 57.5361 13.9593 57.5361 13.8799 57.5361C13.8402 57.5758 13.7607 57.5758 13.6416 57.5361C13.443 57.4964 13.304 57.4766 13.2246 57.4766C13.1452 57.4766 13.0658 57.4766 12.9863 57.4766C12.7878 57.4766 12.609 57.4766 12.4502 57.4766C12.3311 57.5163 12.1722 57.5361 11.9736 57.5361C11.5368 57.4964 11.2389 57.4766 11.0801 57.4766C10.9609 57.5163 10.8219 57.4964 10.6631 57.417C10.3851 57.3376 10.1865 57.2383 10.0674 57.1191C9.90853 56.8411 9.78939 56.6823 9.70996 56.6426C9.67025 56.5632 9.61068 56.4639 9.53125 56.3447C9.57096 56.2653 9.57096 56.166 9.53125 56.0469C9.49154 55.9277 9.47168 55.7887 9.47168 55.6299C9.47168 55.4313 9.49154 55.2129 9.53125 54.9746C9.57096 54.7363 9.59082 54.498 9.59082 54.2598C9.63053 54.0215 9.63053 53.8825 9.59082 53.8428C9.59082 53.7633 9.61068 53.6839 9.65039 53.6045C9.61068 53.4456 9.61068 53.3265 9.65039 53.2471C9.6901 53.1279 9.70996 53.0286 9.70996 52.9492C9.74967 52.7109 9.76953 52.4727 9.76953 52.2344C9.76953 51.9961 9.78939 51.7578 9.8291 51.5195C9.94824 51.043 9.98796 50.7253 9.94824 50.5664C9.90853 50.4076 9.90853 50.2487 9.94824 50.0898C10.0277 49.6927 10.0475 49.4941 10.0078 49.4941C10.0078 49.4544 10.0078 49.4147 10.0078 49.375C10.0078 48.9382 10.0277 48.6999 10.0674 48.6602C10.1071 48.6204 10.127 48.5807 10.127 48.541C10.127 48.4616 10.127 48.3424 10.127 48.1836C10.1667 48.0247 10.1865 47.846 10.1865 47.6475C10.266 47.0915 10.3057 46.7539 10.3057 46.6348C10.266 46.2376 10.2461 46.0391 10.2461 46.0391C10.2858 46.0391 10.3057 46.0192 10.3057 45.9795C10.3057 45.7809 10.3057 45.6419 10.3057 45.5625C10.3057 45.4831 10.3255 45.4036 10.3652 45.3242C10.3652 45.0462 10.3652 44.8874 10.3652 44.8477C10.4049 44.7682 10.4248 44.6888 10.4248 44.6094C10.3454 44.1328 10.3057 43.8548 10.3057 43.7754C10.3454 43.6562 10.3652 43.5173 10.3652 43.3584C10.2858 42.723 10.2858 42.2464 10.3652 41.9287C10.3255 41.6904 10.3057 41.5316 10.3057 41.4521C10.3454 41.3727 10.3652 41.2933 10.3652 41.2139C10.3652 41.0947 10.3454 40.9756 10.3057 40.8564C10.3057 40.7373 10.3255 40.5785 10.3652 40.3799C10.3652 39.943 10.3652 39.6253 10.3652 39.4268C10.4049 39.1885 10.4248 38.9303 10.4248 38.6523C10.3454 38.0964 10.2858 37.7588 10.2461 37.6396C10.2461 37.5205 10.266 37.4014 10.3057 37.2822C10.3057 36.6865 10.3057 36.2894 10.3057 36.0908C10.3454 35.8923 10.3652 35.6937 10.3652 35.4951C10.3652 35.1774 10.3454 34.8994 10.3057 34.6611C10.3057 34.3831 10.3255 34.0853 10.3652 33.7676C10.3652 33.6087 10.3851 33.4896 10.4248 33.4102C10.5042 33.3307 10.5241 33.1917 10.4844 32.9932C10.5241 32.874 10.5241 32.6357 10.4844 32.2783C10.4844 31.8812 10.4844 31.5833 10.4844 31.3848C10.5241 31.1862 10.5638 31.0273 10.6035 30.9082C10.6432 30.7891 10.6432 30.6104 10.6035 30.3721C10.6035 30.1338 10.6035 29.9749 10.6035 29.8955C10.6035 29.7764 10.6035 29.6572 10.6035 29.5381C10.6432 29.0218 10.6432 28.6644 10.6035 28.4658C10.5638 28.2673 10.5439 28.0687 10.5439 27.8701C10.5439 27.6715 10.5439 27.5127 10.5439 27.3936C10.5837 27.2347 10.6035 27.0957 10.6035 26.9766C10.6035 26.6589 10.6035 26.3411 10.6035 26.0234C10.6035 25.666 10.5638 25.3285 10.4844 25.0107C10.4844 24.6136 10.4844 24.3753 10.4844 24.2959C10.5241 24.1768 10.5241 24.0179 10.4844 23.8193C10.4844 23.6208 10.4645 23.4421 10.4248 23.2832C10.4248 23.0846 10.4248 22.8662 10.4248 22.6279C9.98796 22.7074 9.67025 22.7471 9.47168 22.7471C9.27311 22.7868 9.07454 22.8265 8.87598 22.8662C8.71712 22.8662 8.53841 22.8861 8.33984 22.9258C7.90299 22.9655 7.68457 22.9854 7.68457 22.9854C7.68457 22.9456 7.66471 22.9258 7.625 22.9258C7.30729 23.0449 7.10872 23.1045 7.0293 23.1045C6.94987 23.1045 6.85059 23.1243 6.73145 23.1641C6.37402 23.2038 6.13574 23.2435 6.0166 23.2832C5.93717 23.3229 5.85775 23.3428 5.77832 23.3428C5.57975 23.3825 5.38118 23.4023 5.18262 23.4023C5.02376 23.3626 4.84505 23.3825 4.64648 23.4619L3.99121 23.5811C3.63379 23.5811 3.41536 23.5811 3.33594 23.5811C3.29622 23.5413 3.23665 23.5413 3.15723 23.5811C2.72038 23.7002 2.46224 23.7796 2.38281 23.8193C2.3431 23.859 2.28353 23.8988 2.2041 23.9385C1.88639 23.8988 1.70768 23.8988 1.66797 23.9385C1.62826 23.9385 1.58854 23.9385 1.54883 23.9385C1.23112 23.8193 1.07227 23.7399 1.07227 23.7002C1.07227 23.6208 1.03255 23.6009 0.953125 23.6406C0.913411 23.4818 0.853841 23.3229 0.774414 23.1641C0.694987 23.0052 0.635417 22.8265 0.595703 22.6279C0.55599 22.4294 0.55599 22.2109 0.595703 21.9727C0.67513 21.7344 0.734701 21.4961 0.774414 21.2578C0.814128 20.9798 0.833984 20.7614 0.833984 20.6025C0.873698 20.2451 0.933268 19.987 1.0127 19.8281C0.972982 19.431 0.953125 19.1729 0.953125 19.0537C0.953125 18.8949 0.972982 18.7559 1.0127 18.6367C1.09212 18.1999 1.19141 17.9417 1.31055 17.8623C1.31055 17.346 1.3304 17.0085 1.37012 16.8496C1.48926 16.5319 1.52897 16.3135 1.48926 16.1943C1.48926 16.0355 1.50911 15.8766 1.54883 15.7178C1.54883 15.5589 1.56868 15.4199 1.6084 15.3008C1.64811 15.1816 1.66797 15.0228 1.66797 14.8242C1.70768 14.5462 1.72754 14.2682 1.72754 13.9902C1.76725 13.7122 1.80697 13.474 1.84668 13.2754C1.92611 13.196 2.00553 13.1165 2.08496 13.0371C2.16439 12.9577 2.24382 12.8584 2.32324 12.7393C2.76009 12.6598 2.97852 12.6201 2.97852 12.6201C3.45508 12.6201 3.87207 12.64 4.22949 12.6797C4.62663 12.6797 5.04362 12.6995 5.48047 12.7393C5.99674 12.8584 6.35417 12.918 6.55273 12.918C6.7513 12.8783 6.94987 12.8385 7.14844 12.7988C7.38672 12.7591 7.625 12.7591 7.86328 12.7988C8.14128 12.8385 8.3597 12.8385 8.51855 12.7988C8.59798 12.7988 8.73698 12.8187 8.93555 12.8584C9.17383 12.8584 9.3724 12.8187 9.53125 12.7393C9.61068 12.779 9.70996 12.7988 9.8291 12.7988C9.94824 12.7591 10.0674 12.7393 10.1865 12.7393C10.3454 12.779 10.6035 12.7988 10.9609 12.7988C11.2389 12.8385 11.4772 12.8584 11.6758 12.8584C11.9141 12.8584 12.1126 12.8981 12.2715 12.9775C12.6289 12.9378 12.8473 12.918 12.9268 12.918C13.0459 12.918 13.1452 12.9378 13.2246 12.9775C13.7409 12.9775 14.0586 12.9775 14.1777 12.9775C14.2969 12.9378 14.416 12.918 14.5352 12.918C14.694 12.918 14.9323 12.9577 15.25 13.0371C15.8457 12.9577 16.223 12.9378 16.3818 12.9775C16.5804 12.9775 16.779 12.9775 16.9775 12.9775C17.0967 12.9775 17.2158 12.9775 17.335 12.9775C17.4541 12.9378 17.613 12.9378 17.8115 12.9775C18.0498 13.057 18.1888 13.0768 18.2285 13.0371C18.3079 12.9974 18.3874 12.9974 18.4668 13.0371C18.7051 13.0371 18.9831 13.057 19.3008 13.0967C19.6185 13.0967 19.8965 13.0768 20.1348 13.0371C20.4922 13.0371 20.8099 13.0173 21.0879 12.9775C21.3659 12.9378 21.6439 12.9378 21.9219 12.9775C22.5176 12.9378 22.9346 12.9577 23.1729 13.0371C23.4111 13.0768 23.6891 13.0768 24.0068 13.0371L24.6621 12.918C24.7415 12.8783 24.8607 12.8584 25.0195 12.8584C25.2181 12.8187 25.4167 12.779 25.6152 12.7393C26.1315 12.779 26.4492 12.779 26.5684 12.7393C26.6875 12.6598 26.8662 12.64 27.1045 12.6797C27.7002 12.64 28.137 12.6598 28.415 12.7393C28.693 12.8187 28.9909 12.8187 29.3086 12.7393ZM57.0684 36.6865C57.1478 36.5674 57.1875 36.4482 57.1875 36.3291C57.2272 36.21 57.2669 36.071 57.3066 35.9121C57.4655 35.515 57.5251 35.237 57.4854 35.0781C57.4854 34.8796 57.5251 34.681 57.6045 34.4824C57.6442 34.3236 57.6839 34.1846 57.7236 34.0654C57.7633 33.9463 57.8031 33.7874 57.8428 33.5889C57.8031 33.2314 57.7832 33.0329 57.7832 32.9932C57.8229 32.9535 57.8428 32.8939 57.8428 32.8145L57.6641 31.623C57.6641 31.5039 57.6641 31.3848 57.6641 31.2656C57.7038 31.1465 57.7435 31.0075 57.7832 30.8486C57.7832 30.7295 57.7633 30.5905 57.7236 30.4316C57.7236 30.2728 57.7435 30.1338 57.7832 30.0146C57.8229 29.141 57.8229 28.4857 57.7832 28.0488C57.7832 27.5723 57.8031 27.1156 57.8428 26.6787L57.9023 25.7256C57.9421 25.6064 58.0016 25.388 58.0811 25.0703C58.0413 24.8717 58.0215 24.7327 58.0215 24.6533C58.0215 24.5342 58.0612 24.4349 58.1406 24.3555C58.1009 23.998 58.0811 23.6406 58.0811 23.2832C58.1208 22.8861 58.1605 22.4095 58.2002 21.8535C58.2002 21.7344 58.2002 21.6152 58.2002 21.4961C58.2399 21.3372 58.2598 21.1784 58.2598 21.0195C58.2598 20.8607 58.2399 20.7217 58.2002 20.6025C58.1605 20.4437 58.1208 20.265 58.0811 20.0664C58.0016 19.5104 57.9619 19.0934 57.9619 18.8154C57.9619 18.5374 57.9421 18.2396 57.9023 17.9219C57.8626 17.5645 57.8428 17.3857 57.8428 17.3857C57.8825 17.3857 57.9023 17.346 57.9023 17.2666C57.8229 16.8298 57.8031 16.3929 57.8428 15.9561C57.8825 15.4795 57.8626 15.0029 57.7832 14.5264C57.8626 14.4469 57.9023 14.3675 57.9023 14.2881C57.9421 14.1689 58.0016 14.0299 58.0811 13.8711L58.7959 13.4541C59.0739 13.2555 59.2327 13.1364 59.2725 13.0967C59.3122 13.057 59.3717 13.0173 59.4512 12.9775C59.7689 12.9775 59.9277 12.9775 59.9277 12.9775C59.9674 12.9378 60.027 12.918 60.1064 12.918C60.305 12.8783 60.4837 12.8584 60.6426 12.8584C60.8014 12.8584 60.9603 12.8584 61.1191 12.8584C61.3971 12.8584 61.6156 12.8981 61.7744 12.9775C62.0524 12.9378 62.251 12.9378 62.3701 12.9775C62.4893 13.0173 62.5885 13.0173 62.668 12.9775C62.9062 12.9378 63.1247 12.9378 63.3232 12.9775C63.5218 12.9775 63.7402 12.9775 63.9785 12.9775C64.2962 12.9775 64.6338 12.9577 64.9912 12.918C65.3486 12.8783 65.7259 12.8981 66.123 12.9775C66.4805 13.0173 66.7386 13.0371 66.8975 13.0371C67.0563 13.0371 67.2152 13.057 67.374 13.0967C67.4932 13.1364 67.6123 13.196 67.7314 13.2754C67.8506 13.3151 67.9896 13.335 68.1484 13.335C68.3867 13.6527 68.5257 13.8314 68.5654 13.8711C68.6051 13.8711 68.6647 13.9108 68.7441 13.9902C68.9427 14.5065 69.1016 15.0029 69.2207 15.4795C69.3001 15.9958 69.32 16.3333 69.2803 16.4922C69.2406 16.6113 69.2207 16.7702 69.2207 16.9688C69.2604 17.2467 69.2604 17.4255 69.2207 17.5049C69.2207 17.5843 69.2207 17.6637 69.2207 17.7432C69.181 17.9417 69.1611 18.1403 69.1611 18.3389C69.2008 18.4977 69.2406 18.6963 69.2803 18.9346V19.9473C69.2406 20.2253 69.2207 20.4834 69.2207 20.7217C69.2604 20.96 69.2406 21.1784 69.1611 21.377L68.9824 22.3896C68.903 22.8265 68.8831 23.0449 68.9229 23.0449C68.9229 23.1641 68.903 23.3428 68.8633 23.5811C68.8236 23.7796 68.7839 23.9782 68.7441 24.1768C68.7441 24.2562 68.7441 24.3555 68.7441 24.4746C68.7839 24.5938 68.7839 24.7129 68.7441 24.832C68.6647 25.3086 68.625 25.5469 68.625 25.5469C68.6647 25.5469 68.6846 25.5667 68.6846 25.6064C68.6449 26.0433 68.625 26.361 68.625 26.5596C68.6647 26.7581 68.6846 26.9567 68.6846 27.1553C68.6846 27.2744 68.6449 27.4928 68.5654 27.8105C68.5654 28.0091 68.5654 28.2275 68.5654 28.4658C68.5654 28.7041 68.5456 28.9225 68.5059 29.1211V30.0146C68.5059 30.2132 68.486 30.3522 68.4463 30.4316C68.4463 30.5111 68.4463 30.5905 68.4463 30.6699C68.4463 30.9876 68.4264 31.1663 68.3867 31.2061C68.347 31.2061 68.3271 31.2458 68.3271 31.3252C68.3271 31.5635 68.3271 31.8018 68.3271 32.04C68.3271 32.2783 68.3073 32.5365 68.2676 32.8145V33.6484V36.3887L68.1484 37.4609C68.1484 37.5404 68.1484 37.6396 68.1484 37.7588C68.1882 37.8779 68.208 37.9971 68.208 38.1162V40.0225L68.2676 41.0352C68.2279 41.2734 68.208 41.472 68.208 41.6309C68.208 41.7897 68.208 41.9684 68.208 42.167C68.208 42.3656 68.2279 42.5443 68.2676 42.7031C68.3073 42.862 68.3073 43.0605 68.2676 43.2988C68.2676 43.418 68.2676 43.557 68.2676 43.7158C68.3073 43.835 68.3271 43.9342 68.3271 44.0137C68.3271 44.5697 68.3073 44.9271 68.2676 45.0859C68.2676 45.2051 68.2676 45.3441 68.2676 45.5029C68.347 45.9001 68.4066 46.1781 68.4463 46.3369C68.4463 46.734 68.4463 46.9723 68.4463 47.0518C68.486 47.0915 68.5059 47.151 68.5059 47.2305C68.5456 47.429 68.5654 47.6475 68.5654 47.8857C68.5654 48.0843 68.5853 48.3027 68.625 48.541L68.7441 49.6133C68.7839 49.8118 68.7839 50.0303 68.7441 50.2686C68.7441 50.4671 68.7441 50.7253 68.7441 51.043C68.7441 51.1621 68.7441 51.2812 68.7441 51.4004C68.7839 51.5195 68.8037 51.6387 68.8037 51.7578C68.7243 52.1549 68.6846 52.3734 68.6846 52.4131C68.6846 52.4528 68.6449 52.5124 68.5654 52.5918C68.4463 52.7507 68.3669 52.8698 68.3271 52.9492C68.3271 53.0286 68.3271 53.1279 68.3271 53.2471C68.1683 53.3265 68.0293 53.4456 67.9102 53.6045C67.8307 53.7236 67.6917 53.8229 67.4932 53.9023C67.2549 54.1009 67.1159 54.2399 67.0762 54.3193C67.0365 54.359 66.9769 54.4186 66.8975 54.498C66.54 54.6569 66.3018 54.776 66.1826 54.8555C66.1032 54.9349 66.0238 54.9945 65.9443 55.0342C65.4678 55.3122 65.1699 55.5107 65.0508 55.6299C64.9316 55.7093 64.7728 55.8086 64.5742 55.9277C64.2565 56.0866 64.0182 56.166 63.8594 56.166C63.7005 56.166 63.5615 56.2057 63.4424 56.2852C62.7673 56.444 62.2907 56.6029 62.0127 56.7617C61.8141 56.8411 61.5758 56.9603 61.2979 57.1191C61.0199 57.3177 60.722 57.3971 60.4043 57.3574C60.2454 57.3574 60.0866 57.3177 59.9277 57.2383C59.8086 57.1589 59.6696 57.0794 59.5107 57C59.2725 56.6029 59.1136 56.3646 59.0342 56.2852C58.9945 56.166 58.9349 56.0667 58.8555 55.9873C58.776 55.9079 58.6966 55.8086 58.6172 55.6895C58.5378 55.5703 58.4385 55.471 58.3193 55.3916C58.3193 55.2327 58.2796 55.0938 58.2002 54.9746C58.1605 54.8555 58.1009 54.7165 58.0215 54.5576L57.6045 53.9023C57.5251 53.8229 57.4655 53.7236 57.4258 53.6045C57.3861 53.4854 57.3265 53.3662 57.2471 53.2471C56.9294 52.7308 56.7109 52.3932 56.5918 52.2344C56.5124 52.0755 56.4329 51.8968 56.3535 51.6982C56.3138 51.5394 56.2145 51.3805 56.0557 51.2217C55.9365 51.0628 55.8372 50.8841 55.7578 50.6855C55.6784 50.4076 55.5791 50.1891 55.46 50.0303C55.3805 49.9508 55.3011 49.8118 55.2217 49.6133C55.182 49.375 55.1224 49.2161 55.043 49.1367C54.765 48.6999 54.5863 48.4219 54.5068 48.3027C54.4671 48.1836 54.4076 48.0645 54.3281 47.9453C54.0501 47.5085 53.8714 47.29 53.792 47.29C53.7523 47.2503 53.7126 47.1908 53.6729 47.1113C53.3949 46.7936 53.236 46.5355 53.1963 46.3369C52.9977 46.0589 52.8587 45.8802 52.7793 45.8008C52.5807 45.4434 52.4219 45.1852 52.3027 45.0264C52.2233 44.8278 52.124 44.6491 52.0049 44.4902C51.8063 44.0931 51.6872 43.835 51.6475 43.7158C51.6077 43.5967 51.5283 43.4974 51.4092 43.418C51.3298 43.1797 51.29 43.0407 51.29 43.001C51.29 42.9215 51.2702 42.8421 51.2305 42.7627C50.873 42.2067 50.6348 41.8691 50.5156 41.75C50.3965 41.5514 50.2575 41.333 50.0986 41.0947C49.9398 40.8564 49.8405 40.7373 49.8008 40.7373C49.7611 40.6976 49.7214 40.638 49.6816 40.5586L49.1455 39.665C48.8675 39.2679 48.7087 39.0296 48.6689 38.9502L48.252 38.4141C48.0137 37.8978 47.8548 37.5999 47.7754 37.5205C47.7357 37.4014 47.6761 37.3021 47.5967 37.2227C47.4775 37.0638 47.3584 36.9248 47.2393 36.8057C47.1598 36.6468 47.0208 36.488 46.8223 36.3291C46.7428 36.2497 46.6634 36.1504 46.584 36.0312C46.5046 35.9121 46.445 35.7731 46.4053 35.6143C46.167 35.2568 45.9883 34.9987 45.8691 34.8398C45.7897 34.681 45.6507 34.6016 45.4521 34.6016C45.333 34.5618 45.2337 34.5817 45.1543 34.6611C45.0749 34.7406 44.9557 34.7604 44.7969 34.7207C44.7174 34.8796 44.6777 35.1576 44.6777 35.5547C44.6777 35.6738 44.6579 35.8128 44.6182 35.9717C44.6182 36.0908 44.6182 36.2298 44.6182 36.3887C44.5387 36.7064 44.499 36.9645 44.499 37.1631C44.499 37.5602 44.499 37.8779 44.499 38.1162C44.5387 38.3148 44.5785 38.5133 44.6182 38.7119C44.6182 39.0296 44.6182 39.387 44.6182 39.7842C44.6579 40.1813 44.6579 40.499 44.6182 40.7373C44.5785 41.0153 44.5785 41.3132 44.6182 41.6309V42.584V43.2393C44.5785 43.5967 44.5586 43.7952 44.5586 43.835C44.5983 43.835 44.6182 43.8747 44.6182 43.9541C44.6182 44.0732 44.5983 44.2122 44.5586 44.3711C44.5189 44.4902 44.5387 44.6292 44.6182 44.7881C44.5785 45.4235 44.5785 45.8604 44.6182 46.0986C44.6579 46.3369 44.6777 46.5752 44.6777 46.8135C44.7174 47.012 44.7174 47.2305 44.6777 47.4688C44.638 47.707 44.6182 47.9453 44.6182 48.1836C44.6579 48.6602 44.6579 48.958 44.6182 49.0771C44.6182 49.1963 44.6182 49.3154 44.6182 49.4346C44.7373 49.8714 44.7969 50.1296 44.7969 50.209C44.7969 50.2487 44.8167 50.3281 44.8564 50.4473C44.9359 50.6855 44.9557 50.8444 44.916 50.9238C44.916 51.0033 44.916 51.0827 44.916 51.1621C44.9954 51.4004 45.0153 51.5592 44.9756 51.6387C44.9756 51.6784 44.9954 51.738 45.0352 51.8174C45.0352 51.9365 45.0749 52.1549 45.1543 52.4727C45.2337 53.0684 45.2933 53.4059 45.333 53.4854C45.4521 53.9222 45.5117 54.2002 45.5117 54.3193C45.5514 54.4385 45.5713 54.5576 45.5713 54.6768C45.5316 55.1533 45.5514 55.4512 45.6309 55.5703C45.7103 55.6497 45.7699 55.7689 45.8096 55.9277C45.9287 56.4837 45.8294 56.9206 45.5117 57.2383C45.3926 57.278 45.2734 57.278 45.1543 57.2383C45.0749 57.1986 44.9756 57.1986 44.8564 57.2383C44.6579 57.2383 44.4792 57.2581 44.3203 57.2979C44.1615 57.3376 43.9827 57.3177 43.7842 57.2383C43.5062 57.3177 43.1686 57.3376 42.7715 57.2979C42.4141 57.2979 42.0368 57.278 41.6396 57.2383C41.4411 57.2383 41.2425 57.2383 41.0439 57.2383C40.8851 57.2383 40.7064 57.2184 40.5078 57.1787C40.1901 57.0993 39.8724 57.0794 39.5547 57.1191C39.3561 57.1589 39.1774 57.1986 39.0186 57.2383C38.8994 57.278 38.7604 57.278 38.6016 57.2383C38.4824 57.2383 38.3633 57.2184 38.2441 57.1787C38.1647 57.139 38.0654 57.1191 37.9463 57.1191C37.7874 57.1191 37.6286 57.139 37.4697 57.1787C37.3506 57.2184 37.2116 57.2383 37.0527 57.2383C36.9733 57.2383 36.874 57.2184 36.7549 57.1787C36.6357 57.1787 36.5166 57.1787 36.3975 57.1787C36.1592 57.1787 35.9209 57.1986 35.6826 57.2383C35.4443 57.278 35.2458 57.1986 35.0869 57C34.7692 56.9603 34.5508 56.9404 34.4316 56.9404C34.1139 56.7021 33.9154 56.5433 33.8359 56.4639C33.7565 56.3447 33.6771 56.2057 33.5977 56.0469C33.5579 55.9674 33.5381 55.8682 33.5381 55.749C33.5778 55.5902 33.5977 55.471 33.5977 55.3916C33.5182 54.9945 33.4785 54.7959 33.4785 54.7959C33.5182 54.7959 33.5381 54.776 33.5381 54.7363V54.0811C33.5778 53.6442 33.5977 53.3662 33.5977 53.2471C33.6374 53.0882 33.6572 52.9691 33.6572 52.8896C33.6969 52.6514 33.6969 52.3535 33.6572 51.9961C33.6175 51.6387 33.6175 51.2812 33.6572 50.9238C33.8161 50.4076 33.8955 50.07 33.8955 49.9111C33.9352 49.7523 33.9749 49.5736 34.0146 49.375C34.0941 48.9779 34.1139 48.7396 34.0742 48.6602C34.0742 48.5807 34.0742 48.5013 34.0742 48.4219V47.2305C34.1139 46.9922 34.1139 46.7738 34.0742 46.5752C34.0742 46.3369 34.0742 46.0986 34.0742 45.8604C34.1139 45.5824 34.1338 45.3044 34.1338 45.0264C34.1338 44.7484 34.1338 44.4505 34.1338 44.1328C34.1735 43.9342 34.1735 43.7754 34.1338 43.6562C34.1338 43.4974 34.1338 43.3783 34.1338 43.2988C34.1735 42.9414 34.1735 42.6634 34.1338 42.4648C34.1338 42.2663 34.1139 42.0677 34.0742 41.8691C34.0742 41.7103 34.0742 41.5713 34.0742 41.4521C34.1139 41.333 34.1139 41.194 34.0742 41.0352V40.3203C34.0345 39.8835 34.0146 39.6849 34.0146 39.7246C34.0544 39.7246 34.0742 39.7048 34.0742 39.665C34.0345 39.3473 34.0146 39.1686 34.0146 39.1289C34.0544 39.0892 34.0742 39.0296 34.0742 38.9502C34.0742 38.5928 34.0742 38.2354 34.0742 37.8779C34.1139 37.4808 34.1139 37.1829 34.0742 36.9844V35.6143C34.1536 35.2568 34.1934 35.0186 34.1934 34.8994C34.1934 34.7803 34.2331 34.681 34.3125 34.6016C34.2331 34.403 34.1735 34.2243 34.1338 34.0654C34.0941 33.8669 34.0941 33.6882 34.1338 33.5293C34.1338 33.4499 34.1338 33.1917 34.1338 32.7549C34.1338 32.5563 34.1338 32.3776 34.1338 32.2188C34.1735 32.0599 34.1735 31.901 34.1338 31.7422C34.1338 31.3848 34.0941 31.1465 34.0146 31.0273C34.0146 30.5905 34.0146 30.3324 34.0146 30.2529C34.0544 30.1735 34.0742 30.0941 34.0742 30.0146C34.1536 29.6572 34.1735 29.2601 34.1338 28.8232C34.1338 28.3467 34.1139 27.89 34.0742 27.4531C34.0742 27.2546 34.0544 27.0758 34.0146 26.917C34.0146 26.7581 34.0146 26.5993 34.0146 26.4404C34.0146 26.2419 34.0146 26.083 34.0146 25.9639C34.0544 25.805 34.0742 25.6462 34.0742 25.4873C34.0742 25.1696 34.0544 24.8519 34.0146 24.5342C33.9749 24.2165 33.9551 23.8988 33.9551 23.5811C33.9551 22.9059 33.9551 22.2904 33.9551 21.7344C33.9551 21.1784 33.9749 20.6224 34.0146 20.0664L34.0742 19.4111C33.9551 19.0934 33.8955 18.875 33.8955 18.7559C33.9352 18.597 33.9154 18.458 33.8359 18.3389C33.9948 18.2197 34.0742 18.0609 34.0742 17.8623C34.0742 17.6637 34.0941 17.4056 34.1338 17.0879C34.1735 16.929 34.2331 16.79 34.3125 16.6709C34.3919 16.512 34.4316 16.373 34.4316 16.2539C34.6302 16.0553 34.7493 15.8568 34.7891 15.6582C35.2656 15.5391 35.5436 15.4596 35.623 15.4199C35.7025 15.3405 35.7819 15.2809 35.8613 15.2412C36.3379 15.0426 36.596 14.9434 36.6357 14.9434C36.7152 14.9434 36.8145 14.9235 36.9336 14.8838C37.2116 14.7646 37.4499 14.7051 37.6484 14.7051C38.0059 14.5065 38.2044 14.4072 38.2441 14.4072C38.2839 14.4072 38.3236 14.3874 38.3633 14.3477C38.5618 14.1888 38.7207 14.1094 38.8398 14.1094C38.959 14.1094 39.0583 14.0895 39.1377 14.0498C39.4554 13.8512 39.6738 13.7917 39.793 13.8711C39.9121 13.9108 39.9915 13.891 40.0312 13.8115C40.349 13.7321 40.5872 13.6527 40.7461 13.5732C40.8652 13.5335 40.9645 13.474 41.0439 13.3945C41.1631 13.3151 41.2624 13.2555 41.3418 13.2158C41.7389 13.0967 41.9574 13.0371 41.9971 13.0371C42.0368 12.9974 42.0964 12.9577 42.1758 12.918C42.4141 12.7591 42.6325 12.6598 42.8311 12.6201C43.3473 12.6598 43.7246 12.6003 43.9629 12.4414C44.3997 12.5208 44.6182 12.6003 44.6182 12.6797C44.6182 12.7194 44.6976 12.7591 44.8564 12.7988C44.9359 12.9577 45.0352 13.057 45.1543 13.0967C45.2734 13.0967 45.3727 13.1364 45.4521 13.2158C45.6507 13.6527 45.889 13.9704 46.167 14.1689C46.4053 14.5264 46.5046 14.7249 46.4648 14.7646C46.4648 14.7646 46.4847 14.7646 46.5244 14.7646C46.6833 15.1618 46.7627 15.3802 46.7627 15.4199C46.8024 15.4596 46.8421 15.5192 46.8818 15.5986C47.001 15.7575 47.14 15.9958 47.2988 16.3135C47.3783 16.4326 47.4378 16.5518 47.4775 16.6709C47.557 16.7503 47.6165 16.8496 47.6562 16.9688C47.7754 17.2865 47.835 17.5049 47.835 17.624C47.8747 17.7035 47.9144 17.8027 47.9541 17.9219C48.113 18.319 48.2321 18.597 48.3115 18.7559C48.4307 18.875 48.5299 19.0339 48.6094 19.2324C48.7285 19.5898 48.8079 19.8281 48.8477 19.9473C48.8874 20.0664 48.9469 20.2054 49.0264 20.3643C49.2249 20.7614 49.3242 20.9798 49.3242 21.0195C49.3639 21.0592 49.3838 21.099 49.3838 21.1387C49.4632 21.2975 49.5228 21.4564 49.5625 21.6152C49.6022 21.7344 49.6618 21.8535 49.7412 21.9727C49.9398 22.3698 50.0391 22.6081 50.0391 22.6875C50.0788 22.7272 50.1185 22.7669 50.1582 22.8066C50.2773 23.0846 50.3568 23.2633 50.3965 23.3428C50.4362 23.4222 50.4561 23.5215 50.4561 23.6406C50.6546 24.0378 50.8135 24.2959 50.9326 24.415C51.0518 24.6136 51.0915 24.7725 51.0518 24.8916C51.0518 24.971 51.0915 25.11 51.1709 25.3086C51.3298 25.7057 51.4489 25.9837 51.5283 26.1426C51.6077 26.3014 51.6475 26.4603 51.6475 26.6191C51.6872 26.7383 51.7666 26.8574 51.8857 26.9766C52.0049 27.4134 52.0843 27.7113 52.124 27.8701C52.1637 27.9893 52.2233 28.1084 52.3027 28.2275C52.3822 28.3467 52.4417 28.4658 52.4814 28.585C52.5609 28.7041 52.6403 28.8431 52.7197 29.002C52.8786 29.3594 52.958 29.5778 52.958 29.6572C52.958 29.6969 52.9779 29.7565 53.0176 29.8359C53.1367 30.0742 53.2559 30.3721 53.375 30.7295C53.5339 31.1266 53.6927 31.4046 53.8516 31.5635C54.1296 32.0798 54.3281 32.4173 54.4473 32.5762C54.6061 32.735 54.7253 32.9137 54.8047 33.1123C55.043 33.6286 55.1621 33.9463 55.1621 34.0654C55.2018 34.1449 55.2614 34.2441 55.3408 34.3633C55.5791 34.6413 55.738 34.8994 55.8174 35.1377C56.0954 35.4951 56.2344 35.7135 56.2344 35.793C56.2741 35.8327 56.3138 35.8724 56.3535 35.9121C56.5918 36.1901 56.7308 36.3887 56.7705 36.5078C56.8499 36.5872 56.9492 36.6468 57.0684 36.6865Z" fill="#294DA9"/>
<path d="M106.81 11.4883C106.889 11.3691 106.988 11.3493 107.107 11.4287C107.266 11.5081 107.385 11.5081 107.465 11.4287C107.743 11.6273 107.981 11.7464 108.18 11.7861C108.299 11.945 108.497 12.0641 108.775 12.1436C109.093 12.4215 109.272 12.5804 109.312 12.6201C109.709 13.057 110.007 13.335 110.205 13.4541C110.443 13.5732 110.662 13.6924 110.86 13.8115C111.297 13.9704 111.535 14.0895 111.575 14.1689C111.615 14.2484 111.694 14.3278 111.813 14.4072L112.409 14.9434C112.647 15.1022 112.826 15.2412 112.945 15.3604C113.104 15.4001 113.263 15.4596 113.422 15.5391C113.62 15.5788 113.759 15.6383 113.839 15.7178C113.958 16.1546 113.998 16.4326 113.958 16.5518C113.958 16.6709 113.958 16.79 113.958 16.9092C113.839 17.068 113.759 17.207 113.72 17.3262C113.72 17.4056 113.68 17.485 113.601 17.5645C113.402 17.8822 113.263 18.0807 113.184 18.1602C112.906 18.3984 112.707 18.5573 112.588 18.6367C112.508 18.6764 112.429 18.736 112.35 18.8154C111.992 19.1729 111.774 19.3714 111.694 19.4111C111.655 19.4111 111.615 19.431 111.575 19.4707C111.377 19.6296 111.238 19.8083 111.158 20.0068C110.999 20.0068 110.88 20.0664 110.801 20.1855C110.761 20.265 110.682 20.3245 110.562 20.3643C110.245 20.6025 110.066 20.7415 110.026 20.7812C110.026 20.7812 109.987 20.821 109.907 20.9004C109.669 21.099 109.49 21.2578 109.371 21.377C109.292 21.4564 109.212 21.5358 109.133 21.6152C108.815 21.9727 108.636 22.1911 108.597 22.2705C108.557 22.3102 108.497 22.3698 108.418 22.4492C108.18 22.8066 108.041 23.0052 108.001 23.0449C107.961 23.0449 107.922 23.0846 107.882 23.1641C107.644 23.4818 107.465 23.7002 107.346 23.8193C107.227 23.9385 107.127 24.0775 107.048 24.2363C106.849 24.5938 106.73 24.8122 106.69 24.8916C106.651 24.9313 106.651 24.9909 106.69 25.0703C106.571 25.3483 106.452 25.527 106.333 25.6064C106.254 25.6859 106.194 25.7852 106.154 25.9043C106.194 26.1426 106.174 26.361 106.095 26.5596C106.015 26.7581 105.976 26.9567 105.976 27.1553C105.976 27.5921 106.015 27.8503 106.095 27.9297C106.174 28.4062 106.273 28.7637 106.393 29.002C106.512 29.2005 106.611 29.4189 106.69 29.6572C106.77 29.8161 106.829 29.9948 106.869 30.1934C106.949 30.3522 107.028 30.5111 107.107 30.6699C107.266 31.0671 107.385 31.3252 107.465 31.4443C107.544 31.5238 107.624 31.623 107.703 31.7422C107.981 32.0599 108.14 32.2386 108.18 32.2783C108.259 32.2783 108.319 32.318 108.358 32.3975C108.438 32.6357 108.497 32.7946 108.537 32.874C108.617 32.9137 108.676 32.9733 108.716 33.0527C108.875 33.291 108.994 33.5094 109.073 33.708C109.192 33.8669 109.312 34.0257 109.431 34.1846C109.59 34.5023 109.669 34.7008 109.669 34.7803C109.709 34.82 109.768 34.8796 109.848 34.959C110.046 35.3164 110.165 35.515 110.205 35.5547C110.483 35.9915 110.622 36.21 110.622 36.21C110.662 36.1702 110.682 36.1901 110.682 36.2695C110.801 36.7461 110.88 37.1035 110.92 37.3418C110.999 37.5801 111.079 37.8184 111.158 38.0566C111.238 38.2552 111.297 38.4141 111.337 38.5332C111.416 38.6126 111.496 38.6921 111.575 38.7715L111.813 39.5459C112.012 39.943 112.131 40.1615 112.171 40.2012C112.211 40.2409 112.23 40.2806 112.23 40.3203C112.31 40.6777 112.35 40.9359 112.35 41.0947C112.35 41.2536 112.389 41.4124 112.469 41.5713C112.508 41.7301 112.548 41.889 112.588 42.0479C112.628 42.167 112.647 42.3258 112.647 42.5244C112.647 42.8818 112.667 43.1003 112.707 43.1797C112.747 43.2591 112.767 43.3385 112.767 43.418C112.767 43.5371 112.747 43.7158 112.707 43.9541C112.667 44.1527 112.647 44.3314 112.647 44.4902C112.687 44.7285 112.687 44.8874 112.647 44.9668C112.647 45.0065 112.647 45.0661 112.647 45.1455C112.568 45.6221 112.489 45.9199 112.409 46.0391C112.369 46.1582 112.35 46.2773 112.35 46.3965C112.111 46.873 111.972 47.1709 111.933 47.29C111.933 47.3695 111.893 47.4489 111.813 47.5283C111.694 47.8063 111.615 47.985 111.575 48.0645C111.575 48.1439 111.535 48.2233 111.456 48.3027C111.377 48.5013 111.218 48.7197 110.979 48.958C110.781 49.3551 110.582 49.5934 110.384 49.6729C110.384 49.8317 110.344 49.9707 110.265 50.0898C110.185 50.1693 110.106 50.2686 110.026 50.3877C109.868 50.5465 109.788 50.6657 109.788 50.7451C109.788 50.8245 109.768 50.904 109.729 50.9834C109.371 51.3408 109.153 51.5791 109.073 51.6982C109.034 51.7777 108.934 51.8571 108.775 51.9365C108.577 52.1351 108.378 52.3734 108.18 52.6514C107.981 52.8896 107.822 53.1676 107.703 53.4854C107.425 53.6442 107.246 53.8031 107.167 53.9619C106.968 54.2796 106.849 54.4583 106.81 54.498C106.77 54.498 106.73 54.5378 106.69 54.6172C106.571 54.8158 106.472 54.9746 106.393 55.0938C106.353 55.1732 106.313 55.2526 106.273 55.332C105.876 55.5703 105.678 55.7093 105.678 55.749C105.479 55.9476 105.34 56.0667 105.261 56.1064C105.221 56.1462 105.161 56.1859 105.082 56.2256C104.804 56.4639 104.665 56.6029 104.665 56.6426C104.665 56.6823 104.645 56.722 104.605 56.7617C104.367 57.1589 104.188 57.3971 104.069 57.4766C103.99 57.5957 103.891 57.7148 103.771 57.834C103.533 57.9531 103.394 58.1318 103.354 58.3701C102.997 58.6481 102.779 58.807 102.699 58.8467C102.66 58.8864 102.54 58.946 102.342 59.0254C101.905 59.1048 101.647 59.1048 101.567 59.0254C101.528 58.946 101.409 58.9261 101.21 58.9658C100.853 58.6878 100.654 58.5488 100.614 58.5488C100.614 58.5885 100.594 58.5885 100.555 58.5488C100.475 58.4694 100.396 58.3701 100.316 58.251C100.277 58.1318 100.217 58.0326 100.138 57.9531C99.7803 57.6354 99.5817 57.4567 99.542 57.417C99.542 57.3773 99.5023 57.3773 99.4229 57.417C98.986 57.0596 98.6484 56.722 98.4102 56.4043C98.1322 56.2057 97.9535 56.1064 97.874 56.1064C97.7946 56.0667 97.6953 56.027 97.5762 55.9873C97.3379 55.5107 97.179 55.193 97.0996 55.0342C96.7025 54.6768 96.484 54.4782 96.4443 54.4385C96.4443 54.359 96.4046 54.2995 96.3252 54.2598L95.4912 53.4258C95.2132 52.9095 94.9948 52.5719 94.8359 52.4131C94.8359 52.1748 94.7764 52.016 94.6572 51.9365C94.5381 51.8174 94.4587 51.6585 94.4189 51.46C94.4189 51.3408 94.4388 51.2217 94.4785 51.1025C94.5579 50.9437 94.6374 50.8047 94.7168 50.6855C94.8757 50.3281 95.0146 50.0898 95.1338 49.9707C95.2926 49.8118 95.4316 49.6927 95.5508 49.6133C95.8288 49.4147 96.0273 49.2161 96.1465 49.0176C96.623 48.5013 96.9408 48.1836 97.0996 48.0645C97.179 47.9453 97.2386 47.8262 97.2783 47.707C97.3577 47.5482 97.4769 47.429 97.6357 47.3496C97.9932 46.9525 98.2712 46.6546 98.4697 46.4561C98.6683 46.2575 98.8669 46.0589 99.0654 45.8604C99.264 45.6221 99.4626 45.3639 99.6611 45.0859C99.9788 44.6888 100.158 44.4704 100.197 44.4307C100.277 44.3512 100.336 44.2718 100.376 44.1924C100.694 43.7555 100.853 43.4974 100.853 43.418C100.892 43.2988 100.932 43.1995 100.972 43.1201C101.289 42.6436 101.488 42.2663 101.567 41.9883C101.687 41.7103 101.687 41.3926 101.567 41.0352L101.508 40.3799C101.309 40.0225 101.19 39.7842 101.15 39.665C101.111 39.5062 101.051 39.3672 100.972 39.248C100.694 38.8906 100.495 38.6921 100.376 38.6523C100.336 38.4538 100.257 38.3148 100.138 38.2354C100.019 38.1162 99.9193 37.9574 99.8398 37.7588C99.7207 37.6396 99.6413 37.5205 99.6016 37.4014C99.6016 37.2822 99.5618 37.1829 99.4824 37.1035C99.2441 36.7858 99.0853 36.5475 99.0059 36.3887C98.9264 36.2298 98.847 36.071 98.7676 35.9121C98.6087 35.6341 98.5094 35.4951 98.4697 35.4951C98.43 35.4554 98.3903 35.3958 98.3506 35.3164L97.8145 34.7207C97.735 34.5221 97.6357 34.3434 97.5166 34.1846C97.4372 33.986 97.3379 33.7874 97.2188 33.5889C97.1393 33.43 97.04 33.2712 96.9209 33.1123C96.8415 32.9535 96.762 32.7747 96.6826 32.5762C96.5238 32.2982 96.4443 32.1393 96.4443 32.0996C96.4443 32.0599 96.4245 32.0202 96.3848 31.9805C96.1068 31.5833 95.9678 31.3649 95.9678 31.3252L95.5508 30.6104C95.3919 30.2529 95.2926 30.0742 95.2529 30.0742C95.2529 30.0345 95.2529 29.9948 95.2529 29.9551C95.0941 29.7565 94.9948 29.6374 94.9551 29.5977C94.9154 29.5182 94.8757 29.4388 94.8359 29.3594C94.7168 28.9622 94.6572 28.724 94.6572 28.6445C94.5381 28.168 94.4388 27.8701 94.3594 27.751C94.3197 27.6318 94.2998 27.4928 94.2998 27.334C94.3792 26.9368 94.4587 26.5794 94.5381 26.2617C94.6175 25.9043 94.6771 25.7057 94.7168 25.666C94.7565 25.5866 94.7962 25.5072 94.8359 25.4277C94.9154 24.9909 94.9352 24.6335 94.8955 24.3555C94.8955 24.0378 94.9352 23.7796 95.0146 23.5811C95.2132 23.2236 95.3721 22.8861 95.4912 22.5684C95.6898 22.1315 95.8089 21.8535 95.8486 21.7344C95.8883 21.5755 95.9281 21.4564 95.9678 21.377C96.0472 21.099 96.1862 20.8408 96.3848 20.6025C96.623 20.2848 96.762 20.1061 96.8018 20.0664C96.8415 19.987 96.8812 19.9076 96.9209 19.8281C97.318 19.4707 97.5762 19.1927 97.6953 18.9941C97.8939 18.7161 98.0527 18.5176 98.1719 18.3984C98.3307 18.2793 98.4697 18.1204 98.5889 17.9219C98.6683 17.763 98.7279 17.6439 98.7676 17.5645C98.847 17.485 98.9264 17.4056 99.0059 17.3262C99.2839 17.1276 99.4427 16.9886 99.4824 16.9092C99.5221 16.79 99.5817 16.6908 99.6611 16.6113C99.7803 16.4922 99.8994 16.3929 100.019 16.3135C100.177 16.1943 100.297 16.0752 100.376 15.9561C100.455 15.8766 100.515 15.7972 100.555 15.7178C100.634 15.6383 100.714 15.5391 100.793 15.4199C101.309 15.1419 101.627 14.9434 101.746 14.8242C101.865 14.7051 102.004 14.6058 102.163 14.5264C102.56 14.2484 102.878 13.9902 103.116 13.752C103.394 13.5137 103.533 13.3945 103.533 13.3945C103.573 13.3945 103.613 13.3548 103.652 13.2754C103.811 13.1562 103.97 13.0371 104.129 12.918C104.288 12.7591 104.466 12.6003 104.665 12.4414C104.903 12.084 105.042 11.9053 105.082 11.9053C105.122 11.9053 105.142 11.8854 105.142 11.8457C105.578 11.4883 105.936 11.2897 106.214 11.25C106.532 11.2103 106.73 11.2897 106.81 11.4883ZM143.147 36.0312C143.227 36.1504 143.286 36.2695 143.326 36.3887C143.366 36.5078 143.425 36.6071 143.505 36.6865C143.703 36.9248 143.842 37.0837 143.922 37.1631C144.001 37.2425 144.081 37.3021 144.16 37.3418C144.319 37.4609 144.438 37.5602 144.518 37.6396C144.597 37.6794 144.657 37.7389 144.696 37.8184C144.815 37.8581 144.915 37.9375 144.994 38.0566C145.074 38.1361 145.193 38.1758 145.352 38.1758C145.59 38.6126 145.808 38.8509 146.007 38.8906L146.543 39.3076C146.622 39.387 146.702 39.4863 146.781 39.6055C146.9 39.6849 147.02 39.7643 147.139 39.8438C147.576 40.2409 147.814 40.499 147.854 40.6182C148.132 40.9756 148.33 41.194 148.449 41.2734C148.568 41.3529 148.668 41.4323 148.747 41.5117C149.065 41.8294 149.303 42.1074 149.462 42.3457C149.819 42.6634 150.018 42.9017 150.058 43.0605C150.097 43.2194 150.157 43.3385 150.236 43.418C150.355 43.7754 150.415 44.0137 150.415 44.1328C150.653 44.5299 150.792 44.8477 150.832 45.0859C150.911 45.2845 150.991 45.5029 151.07 45.7412C151.031 46.1781 150.991 46.4561 150.951 46.5752C150.951 46.6943 150.931 46.8135 150.892 46.9326C150.693 47.4092 150.594 47.707 150.594 47.8262C150.633 47.9453 150.614 48.0843 150.534 48.2432C150.494 48.402 150.415 48.541 150.296 48.6602C150.216 48.7793 150.177 48.9382 150.177 49.1367C150.058 49.2161 149.958 49.3154 149.879 49.4346C149.799 49.5537 149.72 49.6729 149.641 49.792C149.363 50.07 149.204 50.2288 149.164 50.2686C149.124 50.2686 149.065 50.3083 148.985 50.3877L148.509 51.1025C148.231 51.4202 148.072 51.599 148.032 51.6387C147.993 51.6387 147.953 51.6784 147.913 51.7578C147.715 51.9564 147.536 52.1748 147.377 52.4131C146.861 52.7308 146.464 53.0684 146.186 53.4258C145.749 53.7038 145.491 53.8825 145.411 53.9619C145.371 54.0016 145.312 54.0612 145.232 54.1406C144.954 54.2598 144.756 54.359 144.637 54.4385C144.557 54.5179 144.478 54.5973 144.398 54.6768C143.962 54.9548 143.664 55.1335 143.505 55.2129L142.969 55.6299C142.691 55.8682 142.532 55.9873 142.492 55.9873C142.452 55.9873 142.413 56.0072 142.373 56.0469L141.837 56.4639C141.519 56.5433 141.34 56.6029 141.301 56.6426C141.261 56.6823 141.201 56.7021 141.122 56.7021C140.804 56.9007 140.427 57.0397 139.99 57.1191C139.593 57.1986 139.196 57.3177 138.799 57.4766C138.441 57.4368 138.203 57.417 138.084 57.417C138.005 57.417 137.925 57.4368 137.846 57.4766C137.449 57.5163 137.111 57.556 136.833 57.5957C136.595 57.6354 136.337 57.6553 136.059 57.6553L134.986 57.5957C134.549 57.5163 134.291 57.4567 134.212 57.417C134.132 57.3773 134.053 57.3376 133.974 57.2979C133.616 57.2184 133.398 57.1787 133.318 57.1787C133.239 57.2184 133.16 57.2383 133.08 57.2383C132.882 57.2383 132.703 57.2184 132.544 57.1787C132.425 57.1787 132.266 57.1787 132.067 57.1787C131.948 57.1787 131.809 57.1787 131.65 57.1787C131.531 57.2184 131.392 57.2184 131.233 57.1787C131.154 57.1787 131.035 57.1787 130.876 57.1787C130.757 57.2184 130.658 57.2383 130.578 57.2383C130.26 57.2383 130.022 57.2581 129.863 57.2979C129.744 57.3376 129.565 57.3574 129.327 57.3574C129.009 57.3177 128.791 57.3177 128.672 57.3574C128.592 57.3971 128.513 57.4368 128.434 57.4766C128.036 57.556 127.679 57.5758 127.361 57.5361C127.044 57.5361 126.785 57.5957 126.587 57.7148C126.428 57.6354 126.269 57.5957 126.11 57.5957C125.991 57.6354 125.852 57.6751 125.693 57.7148C125.137 57.6751 124.74 57.6751 124.502 57.7148C124.264 57.7546 124.006 57.7546 123.728 57.7148C123.41 57.6354 123.231 57.5957 123.191 57.5957C123.152 57.6354 123.092 57.6553 123.013 57.6553C122.933 57.6553 122.814 57.6354 122.655 57.5957C122.496 57.5957 122.377 57.6156 122.298 57.6553C121.662 57.4964 121.245 57.4368 121.047 57.4766C120.848 57.5163 120.65 57.5163 120.451 57.4766C120.253 57.3971 120.054 57.2979 119.855 57.1787C119.577 56.9404 119.399 56.7816 119.319 56.7021C119.28 56.6227 119.26 56.5433 119.26 56.4639C119.26 56.1462 119.24 55.9277 119.2 55.8086C119.2 55.6895 119.2 55.5703 119.2 55.4512C119.24 55.2526 119.24 55.1136 119.2 55.0342C119.2 54.915 119.2 54.7959 119.2 54.6768L119.141 53.7236V53.0088C119.22 52.7308 119.24 52.5719 119.2 52.5322C119.2 52.4528 119.22 52.3734 119.26 52.2939C119.299 52.0954 119.319 51.9167 119.319 51.7578C119.359 51.599 119.399 51.3805 119.438 51.1025C119.558 50.6657 119.597 50.4076 119.558 50.3281C119.558 50.209 119.558 50.1097 119.558 50.0303C119.597 49.8317 119.637 49.6729 119.677 49.5537C119.716 49.3949 119.736 49.236 119.736 49.0771V48.3623C119.776 48.0843 119.776 47.9255 119.736 47.8857C119.736 47.846 119.736 47.7865 119.736 47.707C119.776 47.5085 119.796 47.3099 119.796 47.1113C119.836 46.873 119.855 46.6149 119.855 46.3369C119.895 45.8206 119.895 45.5228 119.855 45.4434C119.855 45.3639 119.855 45.2845 119.855 45.2051C119.895 44.7285 119.895 44.4108 119.855 44.252C119.855 44.0931 119.855 43.9144 119.855 43.7158C119.895 43.6364 119.895 43.5371 119.855 43.418C119.816 43.2591 119.796 43.1003 119.796 42.9414C119.796 42.7826 119.796 42.6436 119.796 42.5244C119.836 42.3656 119.855 42.1868 119.855 41.9883C119.855 41.472 119.836 41.0947 119.796 40.8564C119.796 40.6182 119.776 40.3799 119.736 40.1416C119.736 39.9827 119.716 39.8438 119.677 39.7246C119.677 39.5658 119.677 39.4069 119.677 39.248V37.4609C119.637 37.0638 119.617 36.8454 119.617 36.8057L119.498 34.7207C119.458 34.6016 119.419 34.4824 119.379 34.3633C119.339 34.2441 119.319 34.125 119.319 34.0059L119.379 33.291L119.438 32.5166C119.399 32.0798 119.339 31.7422 119.26 31.5039C119.299 30.9479 119.28 30.5905 119.2 30.4316C119.16 30.2331 119.18 30.0544 119.26 29.8955C119.26 29.6175 119.24 29.4388 119.2 29.3594C119.2 29.2402 119.2 29.141 119.2 29.0615C119.041 28.3467 118.942 27.8105 118.902 27.4531C118.863 27.1751 118.863 26.8773 118.902 26.5596C118.942 26.2419 118.942 25.9242 118.902 25.6064C118.902 25.4873 118.882 25.3682 118.843 25.249C118.843 25.1299 118.843 25.0306 118.843 24.9512C118.803 24.7129 118.803 24.4548 118.843 24.1768C118.882 23.8988 118.902 23.6605 118.902 23.4619C118.902 23.1045 118.882 22.9059 118.843 22.8662C118.803 22.8265 118.783 22.7868 118.783 22.7471C118.783 22.5882 118.803 22.4492 118.843 22.3301C118.882 22.2109 118.902 22.0918 118.902 21.9727L118.843 20.7217C118.803 20.6025 118.763 20.5033 118.724 20.4238C118.684 20.3047 118.664 20.1657 118.664 20.0068V19.0537C118.664 18.6963 118.644 18.3389 118.604 17.9814C118.565 17.5843 118.585 17.2467 118.664 16.9688C118.585 16.8496 118.545 16.651 118.545 16.373C118.585 16.0553 118.545 15.8369 118.426 15.7178C118.465 15.2412 118.465 14.9831 118.426 14.9434C118.386 14.9036 118.366 14.8441 118.366 14.7646C118.366 14.4072 118.406 14.2087 118.485 14.1689C118.565 14.0895 118.565 13.9902 118.485 13.8711C118.724 13.4342 118.902 13.2158 119.021 13.2158C119.18 13.1761 119.299 13.1165 119.379 13.0371C119.577 13.0371 119.716 13.057 119.796 13.0967C119.875 13.0967 119.955 13.0371 120.034 12.918H120.749C121.067 12.9974 121.245 13.0371 121.285 13.0371C121.325 12.9974 121.384 12.9775 121.464 12.9775C121.94 13.0173 122.298 13.0173 122.536 12.9775C122.814 12.9378 123.072 12.9577 123.311 13.0371C123.43 12.9577 123.569 12.9378 123.728 12.9775C123.926 13.0173 124.025 12.9974 124.025 12.918C124.462 12.9577 124.74 12.9974 124.859 13.0371C124.979 13.0371 125.078 13.0173 125.157 12.9775C125.753 12.8981 126.09 12.8783 126.17 12.918C126.488 12.9577 126.666 12.9775 126.706 12.9775C126.785 12.9378 126.865 12.918 126.944 12.918C127.421 12.918 127.659 12.8783 127.659 12.7988C128.255 12.9974 128.692 13.0768 128.97 13.0371C129.287 12.9577 129.546 12.918 129.744 12.918H131.174C131.492 12.8783 131.77 12.8584 132.008 12.8584C132.246 12.8187 132.504 12.7591 132.782 12.6797C133.179 12.7988 133.418 12.8385 133.497 12.7988C133.616 12.7591 133.735 12.7194 133.854 12.6797H134.986C135.622 12.6797 136.078 12.6797 136.356 12.6797C136.674 12.6797 136.992 12.6797 137.31 12.6797C137.548 12.64 137.746 12.6201 137.905 12.6201C138.104 12.5804 138.283 12.5208 138.441 12.4414L139.156 12.6201C139.514 12.6201 139.712 12.6201 139.752 12.6201C139.792 12.5804 139.851 12.5804 139.931 12.6201C140.248 12.7393 140.427 12.7988 140.467 12.7988C140.507 12.7988 140.566 12.8187 140.646 12.8584C140.765 12.8981 140.884 12.9378 141.003 12.9775C141.122 13.0173 141.261 13.0371 141.42 13.0371C141.857 13.2357 142.194 13.3747 142.433 13.4541C142.631 13.7718 142.77 13.9704 142.85 14.0498C142.969 14.1292 143.068 14.2285 143.147 14.3477C143.386 14.6257 143.505 14.7845 143.505 14.8242C143.545 14.8639 143.584 14.9036 143.624 14.9434C143.862 15.2214 143.981 15.3802 143.981 15.4199C143.981 15.4199 144.001 15.4398 144.041 15.4795C144.2 15.6383 144.319 15.7773 144.398 15.8965C144.478 16.0156 144.577 16.1149 144.696 16.1943C144.935 16.4723 145.113 16.7106 145.232 16.9092C145.391 17.068 145.55 17.2467 145.709 17.4453C146.027 17.8822 146.245 18.1602 146.364 18.2793C146.483 18.3984 146.583 18.5374 146.662 18.6963C146.821 18.8154 146.94 18.9147 147.02 18.9941C147.099 19.0736 147.178 19.153 147.258 19.2324C147.655 19.7487 147.893 20.1061 147.973 20.3047C148.251 20.5827 148.429 20.7614 148.509 20.8408C148.588 20.9202 148.668 20.9997 148.747 21.0791C148.985 21.516 149.184 21.8138 149.343 21.9727C149.66 22.3301 149.819 22.5286 149.819 22.5684C149.859 22.6081 149.919 22.6875 149.998 22.8066C150.276 23.1243 150.435 23.3229 150.475 23.4023C150.753 23.7995 150.892 24.0179 150.892 24.0576C150.931 24.0973 150.971 24.137 151.011 24.1768C151.289 24.5342 151.428 24.7923 151.428 24.9512C151.428 25.0703 151.467 25.2292 151.547 25.4277C151.666 25.7454 151.745 25.9242 151.785 25.9639C151.825 26.0036 151.845 26.0632 151.845 26.1426C151.884 26.5794 151.865 26.9368 151.785 27.2148C151.706 27.5723 151.626 27.7907 151.547 27.8701C151.507 27.9495 151.467 28.029 151.428 28.1084C151.348 28.2275 151.309 28.3665 151.309 28.5254C151.348 28.6445 151.328 28.7835 151.249 28.9424C150.892 29.2601 150.653 29.4785 150.534 29.5977C150.455 29.6771 150.375 29.7565 150.296 29.8359C150.058 30.1139 149.919 30.3324 149.879 30.4912C149.68 30.5706 149.541 30.6898 149.462 30.8486C149.422 30.9678 149.303 31.0671 149.104 31.1465C149.025 31.3451 148.926 31.484 148.807 31.5635C148.688 31.6032 148.588 31.7223 148.509 31.9209C147.993 32.1989 147.576 32.457 147.258 32.6953C147.178 32.7747 147.099 32.8542 147.02 32.9336C146.94 33.013 146.841 33.0726 146.722 33.1123C146.523 33.3109 146.384 33.4499 146.305 33.5293C146.265 33.569 146.205 33.6286 146.126 33.708C145.808 33.8669 145.491 34.0654 145.173 34.3037C144.776 34.5817 144.537 34.7406 144.458 34.7803C144.418 34.7803 144.359 34.82 144.279 34.8994C143.922 35.2568 143.723 35.4554 143.684 35.4951C143.406 35.7731 143.267 35.932 143.267 35.9717C143.267 35.9717 143.227 35.9915 143.147 36.0312ZM139.99 25.666C139.712 25.2689 139.573 25.0505 139.573 25.0107C139.573 24.971 139.553 24.9115 139.514 24.832C139.275 24.5938 139.136 24.4349 139.097 24.3555C139.097 24.276 139.057 24.1966 138.978 24.1172C138.739 23.7995 138.6 23.6208 138.561 23.5811C138.362 23.3031 138.203 23.1045 138.084 22.9854C138.005 22.9059 137.925 22.8066 137.846 22.6875C137.806 22.5684 137.746 22.4691 137.667 22.3896C137.349 22.0719 137.171 21.9131 137.131 21.9131C136.853 21.5954 136.674 21.3968 136.595 21.3174C136.317 20.96 136.158 20.7812 136.118 20.7812C136.118 20.7415 136.098 20.7217 136.059 20.7217L135.522 20.2451C135.443 20.126 135.364 20.0267 135.284 19.9473C135.244 19.8678 135.185 19.7686 135.105 19.6494C134.986 19.6097 134.867 19.5501 134.748 19.4707C134.669 19.3913 134.589 19.3118 134.51 19.2324C134.073 18.9941 133.854 18.875 133.854 18.875C133.537 18.7161 133.338 18.6367 133.259 18.6367C133.179 18.597 133.12 18.5573 133.08 18.5176C132.921 18.4382 132.782 18.3984 132.663 18.3984C132.544 18.3587 132.445 18.319 132.365 18.2793C132.246 18.2396 132.127 18.2197 132.008 18.2197C131.928 18.2197 131.809 18.1999 131.65 18.1602C131.214 18.1204 130.936 18.0609 130.816 17.9814C130.697 17.902 130.578 17.902 130.459 17.9814C130.181 18.4977 130.002 18.875 129.923 19.1133C129.883 19.3118 129.843 19.5303 129.804 19.7686L129.565 20.7812C129.526 20.9004 129.506 21.0394 129.506 21.1982C129.546 21.3571 129.546 21.516 129.506 21.6748C129.347 22.3896 129.287 22.9059 129.327 23.2236C129.367 23.5016 129.407 23.7995 129.446 24.1172C129.446 24.3158 129.426 24.5143 129.387 24.7129C129.387 24.9115 129.407 25.11 129.446 25.3086C129.446 25.4277 129.466 25.5469 129.506 25.666C129.546 25.7852 129.546 25.9242 129.506 26.083C129.506 26.4801 129.486 26.7184 129.446 26.7979C129.446 26.8773 129.446 26.9567 129.446 27.0361C129.565 27.5921 129.605 27.9893 129.565 28.2275C129.565 28.4261 129.605 28.6247 129.685 28.8232C129.486 29.1012 129.486 29.4785 129.685 29.9551C129.565 30.1934 129.546 30.4515 129.625 30.7295L129.685 31.5039C129.605 31.7819 129.565 32.0202 129.565 32.2188C129.526 32.5365 129.526 32.7946 129.565 32.9932C129.645 33.152 129.724 33.3307 129.804 33.5293C130.161 33.4896 130.34 33.4697 130.34 33.4697C130.38 33.4697 130.419 33.4499 130.459 33.4102C130.936 33.3307 131.174 33.291 131.174 33.291C131.412 33.1322 131.571 33.0527 131.65 33.0527C131.77 33.0527 131.869 33.0329 131.948 32.9932C132.345 32.7549 132.584 32.6357 132.663 32.6357C132.743 32.5563 132.842 32.4967 132.961 32.457C133.08 32.3776 133.179 32.2982 133.259 32.2188C133.656 32.0202 133.894 31.9209 133.974 31.9209C134.252 31.762 134.41 31.6826 134.45 31.6826C134.53 31.6826 134.609 31.6628 134.688 31.623C134.966 31.3451 135.165 31.2061 135.284 31.2061L135.82 30.7295C136.257 30.3721 136.634 30.1536 136.952 30.0742C137.27 29.9948 137.468 29.8359 137.548 29.5977C137.667 29.5182 137.766 29.4587 137.846 29.4189C137.925 29.3395 138.005 29.2601 138.084 29.1807C138.283 29.0218 138.422 28.9225 138.501 28.8828C138.58 28.8034 138.62 28.7438 138.62 28.7041C138.858 28.5055 139.017 28.3864 139.097 28.3467C139.176 28.307 139.236 28.2474 139.275 28.168C139.553 27.8105 139.692 27.6318 139.692 27.6318C139.812 27.473 139.931 27.334 140.05 27.2148C140.209 27.056 140.328 26.8773 140.407 26.6787C140.328 26.5199 140.248 26.361 140.169 26.2021C140.09 26.0433 140.03 25.8646 139.99 25.666ZM131.174 51.043C131.571 51.0827 131.789 51.0827 131.829 51.043C132.226 51.043 132.445 51.043 132.484 51.043C132.921 50.9635 133.179 50.9238 133.259 50.9238C133.338 50.9238 133.418 50.904 133.497 50.8643C133.894 50.7451 134.132 50.6458 134.212 50.5664C134.569 50.487 134.748 50.4473 134.748 50.4473C134.788 50.4076 134.827 50.3877 134.867 50.3877C135.105 50.2288 135.284 50.1494 135.403 50.1494C135.562 50.1494 135.681 50.1097 135.761 50.0303C136.078 49.7523 136.297 49.5934 136.416 49.5537C136.535 49.4743 136.654 49.3949 136.773 49.3154C137.091 49.0771 137.27 48.958 137.31 48.958C137.349 48.9183 137.369 48.8786 137.369 48.8389C137.607 48.5609 137.746 48.4417 137.786 48.4814C137.866 48.4814 137.925 48.4616 137.965 48.4219C138.203 47.8659 138.382 47.5085 138.501 47.3496C138.62 47.151 138.719 46.9326 138.799 46.6943C139.117 46.3369 139.315 46.1185 139.395 46.0391C139.514 45.9199 139.593 45.8206 139.633 45.7412C139.633 45.4235 139.633 45.2646 139.633 45.2646C139.673 45.2249 139.692 45.1654 139.692 45.0859C139.613 44.5299 139.573 44.2122 139.573 44.1328C139.573 44.0534 139.553 43.9144 139.514 43.7158C139.236 43.4378 139.057 43.279 138.978 43.2393C138.938 43.1598 138.918 43.0605 138.918 42.9414C138.561 42.6237 138.342 42.4648 138.263 42.4648C138.223 42.4648 138.183 42.445 138.144 42.4053C137.905 42.1273 137.627 41.889 137.31 41.6904C136.992 41.3727 136.793 41.1742 136.714 41.0947C136.634 40.9756 136.515 40.8962 136.356 40.8564C136.118 40.5785 135.959 40.4196 135.88 40.3799C135.8 40.3402 135.721 40.3005 135.642 40.2607C135.244 40.0225 135.026 39.8835 134.986 39.8438C134.788 39.6849 134.629 39.6055 134.51 39.6055C134.43 39.6055 134.331 39.5856 134.212 39.5459C133.854 39.3076 133.636 39.1686 133.557 39.1289C133.477 39.0495 133.418 39.0296 133.378 39.0693C132.941 38.9105 132.683 38.8311 132.604 38.8311C132.564 38.8311 132.524 38.8112 132.484 38.7715C131.77 38.4935 131.293 38.3545 131.055 38.3545C130.896 38.2751 130.658 38.2354 130.34 38.2354C130.062 38.1956 129.863 38.1758 129.744 38.1758C129.625 38.3346 129.565 38.6722 129.565 39.1885C129.565 39.5062 129.585 39.8239 129.625 40.1416C129.665 40.4196 129.704 40.7174 129.744 41.0352C129.784 41.194 129.804 41.3529 129.804 41.5117C129.843 41.6706 129.843 41.7897 129.804 41.8691C129.883 42.2663 129.903 42.4847 129.863 42.5244C129.863 42.5244 129.863 42.5641 129.863 42.6436C129.903 42.9613 129.923 43.2194 129.923 43.418C129.883 43.6562 129.883 43.835 129.923 43.9541C129.963 44.0732 129.943 44.1527 129.863 44.1924C129.903 44.5498 129.923 44.7682 129.923 44.8477C129.963 44.9271 129.982 45.0065 129.982 45.0859C130.022 45.4434 130.022 45.7611 129.982 46.0391C129.982 46.3171 129.982 46.5553 129.982 46.7539L130.042 47.4092C130.042 47.6872 130.062 47.8659 130.102 47.9453C130.141 48.0247 130.161 48.124 130.161 48.2432C130.201 48.402 130.221 48.68 130.221 49.0771C130.181 49.3949 130.161 49.5934 130.161 49.6729C130.201 49.7126 130.221 49.7523 130.221 49.792C130.3 50.1891 130.32 50.4076 130.28 50.4473C130.28 50.487 130.3 50.5267 130.34 50.5664C130.578 50.9238 130.757 51.1025 130.876 51.1025C130.995 51.0628 131.094 51.043 131.174 51.043Z" fill="#F50707"/>
<defs>
<clipPath id="clip0_309_168">
<rect width="83" height="130" fill="white" transform="translate(0 -40)"/>
</clipPath>
</defs>
</svg>
