<svg width="608" height="112" viewBox="0 0 608 112" fill="none" xmlns="http://www.w3.org/2000/svg">
<path d="M26.435 41.584C26.435 42.0167 25.2157 42.3707 22.777 42.646C20.3777 42.882 17.9587 43 15.52 43C13.1207 43 11.5867 42.9017 10.918 42.705C10.2887 42.469 9.974 42.0953 9.974 41.584V16.214H1.773C1.34033 16.214 0.966667 15.6633 0.652 14.562C0.337333 13.4607 0.18 11.8283 0.18 9.665C0.18 7.46233 0.416 5.49566 0.888 3.765C1.36 1.995 1.98933 1.11 2.776 1.11H34.695C35.285 1.11 35.6783 1.66066 35.875 2.762C36.111 3.86333 36.229 5.45633 36.229 7.541C36.229 9.62566 36.0127 11.5923 35.58 13.441C35.1473 15.2897 34.5573 16.214 33.81 16.214H26.435V41.584ZM56.2517 41.289C56.2517 41.8003 55.052 42.2133 52.6527 42.528C50.2927 42.8427 47.8933 43 45.4547 43C43.0553 43 41.5017 42.8623 40.7937 42.587C40.125 42.3117 39.7907 41.879 39.7907 41.289V5.004C39.7907 4.02066 40.9313 3.13567 43.2127 2.349C45.494 1.523 47.972 1.11 50.6467 1.11C54.3833 1.11 56.2517 1.995 56.2517 3.765V16.745H61.5027V5.004C61.5027 4.02066 62.6433 3.13567 64.9247 2.349C67.2453 1.523 69.743 1.11 72.4177 1.11C76.115 1.11 77.9637 1.995 77.9637 3.765V41.289C77.9637 41.8003 76.764 42.2133 74.3647 42.528C71.9653 42.8427 69.566 43 67.1667 43C64.7673 43 63.2137 42.8623 62.5057 42.587C61.837 42.3117 61.5027 41.879 61.5027 41.289V27.778H56.2517V41.289ZM112.571 43H87.5549C85.6275 43 84.3295 42.8623 83.6609 42.587C82.9922 42.3117 82.6579 41.879 82.6579 41.289V3.942C82.6579 2.91933 83.1102 2.19166 84.0149 1.759C84.9589 1.32633 86.6305 1.11 89.0299 1.11H112.748C113.574 1.11 113.987 2.48666 113.987 5.24C113.987 7.954 113.81 10.0387 113.456 11.494C113.102 12.91 112.63 13.618 112.04 13.618C109.483 13.618 105.176 13.3623 99.1189 12.851V16.804C104.94 16.568 108.736 16.45 110.506 16.45C111.568 16.45 112.099 17.689 112.099 20.167C112.099 22.645 111.883 24.533 111.45 25.831C111.057 27.0897 110.506 27.719 109.798 27.719L99.1189 27.483V31.259C105.963 30.7477 110.683 30.492 113.279 30.492C114.105 30.492 114.518 31.8687 114.518 34.622C114.518 37.3753 114.341 39.46 113.987 40.876C113.633 42.292 113.161 43 112.571 43ZM148.382 41.289C148.382 41.8003 147.162 42.2133 144.724 42.528C142.324 42.8427 139.925 43 137.526 43C135.126 43 133.592 42.8623 132.924 42.587C132.255 42.3117 131.921 41.879 131.921 41.289V5.063C131.921 4.07966 133.042 3.175 135.284 2.349C137.565 1.523 140.141 1.11 143.013 1.11C144.035 1.11 144.802 1.14933 145.314 1.228C146.651 1.42467 147.595 2.27033 148.146 3.765L153.81 18.987H154.046V5.063C154.046 4.07966 155.167 3.175 157.409 2.349C159.651 1.523 162.207 1.11 165.079 1.11C167.557 1.11 169.13 1.582 169.799 2.526C170.271 3.19466 170.507 3.80433 170.507 4.355V41.289C170.507 41.8003 169.287 42.2133 166.849 42.528C164.449 42.8427 161.794 43 158.884 43C156.012 43 154.439 42.6263 154.164 41.879L148.677 27.365H148.382V41.289ZM191.71 41.584C191.71 42.0167 190.51 42.3707 188.111 42.646C185.711 42.882 183.292 43 180.854 43C178.454 43 176.92 42.9017 176.252 42.705C175.583 42.469 175.249 42.0953 175.249 41.584V4.886C175.249 4.02066 176.389 3.175 178.671 2.349C180.952 1.48367 183.509 1.051 186.341 1.051C188.858 1.051 190.51 1.582 191.297 2.644C191.572 3.03733 191.71 3.43067 191.71 3.824V41.584ZM212.913 41.289C212.913 41.8003 211.693 42.2133 209.255 42.528C206.855 42.8427 204.456 43 202.057 43C199.657 43 198.123 42.8623 197.455 42.587C196.786 42.3117 196.452 41.879 196.452 41.289V5.063C196.452 4.07966 197.573 3.175 199.815 2.349C202.096 1.523 204.672 1.11 207.544 1.11C208.566 1.11 209.333 1.14933 209.845 1.228C211.182 1.42467 212.126 2.27033 212.677 3.765L218.341 18.987H218.577V5.063C218.577 4.07966 219.698 3.175 221.94 2.349C224.182 1.523 226.738 1.11 229.61 1.11C232.088 1.11 233.661 1.582 234.33 2.526C234.802 3.19466 235.038 3.80433 235.038 4.355V41.289C235.038 41.8003 233.818 42.2133 231.38 42.528C228.98 42.8427 226.325 43 223.415 43C220.543 43 218.97 42.6263 218.695 41.879L213.208 27.365H212.913V41.289ZM264.855 41.584C264.855 42.0167 263.636 42.3707 261.197 42.646C258.798 42.882 256.379 43 253.94 43C251.541 43 250.007 42.9017 249.338 42.705C248.709 42.469 248.394 42.0953 248.394 41.584V16.214H240.193C239.76 16.214 239.387 15.6633 239.072 14.562C238.757 13.4607 238.6 11.8283 238.6 9.665C238.6 7.46233 238.836 5.49566 239.308 3.765C239.78 1.995 240.409 1.11 241.196 1.11H273.115C273.705 1.11 274.098 1.66066 274.295 2.762C274.531 3.86333 274.649 5.45633 274.649 7.541C274.649 9.62566 274.433 11.5923 274 13.441C273.567 15.2897 272.977 16.214 272.23 16.214H264.855V41.584ZM308.124 43H283.108C281.18 43 279.882 42.8623 279.214 42.587C278.545 42.3117 278.211 41.879 278.211 41.289V3.942C278.211 2.91933 278.663 2.19166 279.568 1.759C280.512 1.32633 282.183 1.11 284.583 1.11H308.301C309.127 1.11 309.54 2.48666 309.54 5.24C309.54 7.954 309.363 10.0387 309.009 11.494C308.655 12.91 308.183 13.618 307.593 13.618C305.036 13.618 300.729 13.3623 294.672 12.851V16.804C300.493 16.568 304.289 16.45 306.059 16.45C307.121 16.45 307.652 17.689 307.652 20.167C307.652 22.645 307.435 24.533 307.003 25.831C306.609 27.0897 306.059 27.719 305.351 27.719L294.672 27.483V31.259C301.516 30.7477 306.236 30.492 308.832 30.492C309.658 30.492 310.071 31.8687 310.071 34.622C310.071 37.3753 309.894 39.46 309.54 40.876C309.186 42.292 308.714 43 308.124 43ZM330.682 41.289C330.682 41.8003 329.463 42.2133 327.024 42.528C324.625 42.8427 322.226 43 319.826 43C317.427 43 315.893 42.8623 315.224 42.587C314.556 42.3117 314.221 41.879 314.221 41.289V5.063C314.221 4.07966 315.342 3.175 317.584 2.349C319.866 1.523 322.442 1.11 325.313 1.11C326.336 1.11 327.103 1.14933 327.614 1.228C328.952 1.42467 329.896 2.27033 330.446 3.765L336.11 18.987H336.346V5.063C336.346 4.07966 337.467 3.175 339.709 2.349C341.951 1.523 344.508 1.11 347.379 1.11C349.857 1.11 351.431 1.582 352.099 2.526C352.571 3.19466 352.807 3.80433 352.807 4.355V41.289C352.807 41.8003 351.588 42.2133 349.149 42.528C346.75 42.8427 344.095 43 341.184 43C338.313 43 336.74 42.6263 336.464 41.879L330.977 27.365H330.682V41.289ZM376.37 43H362.446C360.519 43 359.221 42.8623 358.552 42.587C357.884 42.3117 357.549 41.8593 357.549 41.23V4.001C357.549 2.97833 357.982 2.25066 358.847 1.818C359.713 1.346 361.207 1.11 363.331 1.11H376.606C384.158 1.11 389.37 2.60467 392.241 5.594C395.113 8.544 396.548 13.9327 396.548 21.76C396.548 29.5873 395.054 35.094 392.064 38.28C389.075 41.4267 383.844 43 376.37 43ZM375.898 9.901C374.954 9.901 374.325 9.97966 374.01 10.137V33.973L376.252 34.209C377.432 34.209 378.317 33.265 378.907 31.377C379.537 29.489 379.851 26.2243 379.851 21.583C379.851 16.9417 379.537 13.8343 378.907 12.261C378.278 10.6877 377.275 9.901 375.898 9.901ZM420.647 43.531C417.382 43.531 414.57 43.236 412.21 42.646C409.889 42.0167 407.745 40.9153 405.779 39.342C401.806 36.2347 399.82 30.2757 399.82 21.465C399.82 17.7677 400.351 14.5423 401.413 11.789C402.514 9.03566 404.028 6.85266 405.956 5.24C409.732 2.09333 414.629 0.519998 420.647 0.519998C423.754 0.519998 426.448 0.795332 428.73 1.346C431.05 1.89666 433.233 2.89966 435.279 4.355C439.409 7.34433 441.474 13.0477 441.474 21.465C441.474 29.017 439.605 34.5827 435.869 38.162C432.132 41.7413 427.058 43.531 420.647 43.531ZM418.7 33.442C419.172 33.9927 419.821 34.268 420.647 34.268C421.473 34.268 422.122 33.9927 422.594 33.442C423.066 32.852 423.459 31.6327 423.774 29.784C424.088 27.896 424.246 25.2803 424.246 21.937C424.246 18.5937 424.088 16.0173 423.774 14.208C423.459 12.3987 423.066 11.2187 422.594 10.668C422.122 10.1173 421.473 9.842 420.647 9.842C419.821 9.842 419.172 10.1173 418.7 10.668C418.228 11.2187 417.834 12.3987 417.52 14.208C417.205 16.0173 417.048 18.5937 417.048 21.937C417.048 25.2803 417.205 27.896 417.52 29.784C417.834 31.6327 418.228 32.852 418.7 33.442Z" fill="#294DA9"/>
<path d="M230.17 108.522C228.99 109.387 227.338 110.115 225.214 110.705C223.13 111.256 220.416 111.531 217.072 111.531C213.768 111.531 210.622 111.256 207.632 110.705C204.643 110.154 202.499 109.545 201.201 108.876C199.903 108.207 199.254 107.558 199.254 106.929C199.254 104.726 199.569 102.445 200.198 100.085C200.828 97.6857 201.575 96.486 202.44 96.486C202.598 96.486 204.23 97.017 207.337 98.079C210.445 99.141 212.785 99.672 214.358 99.672C215.932 99.672 216.954 99.5147 217.426 99.2C217.898 98.846 218.134 98.3543 218.134 97.725C218.134 97.0957 217.702 96.545 216.836 96.073C215.971 95.5617 214.889 95.129 213.591 94.775C212.293 94.3817 210.877 93.831 209.343 93.123C207.849 92.415 206.452 91.6283 205.154 90.763C203.856 89.8977 202.775 88.6783 201.909 87.105C201.044 85.4923 200.611 83.6633 200.611 81.618C200.611 72.886 205.823 68.52 216.246 68.52C220.14 68.52 223.503 68.7757 226.335 69.287C229.167 69.759 231.154 70.3097 232.294 70.939C233.474 71.529 234.064 72.119 234.064 72.709C234.064 74.7543 233.573 76.957 232.589 79.317C231.645 81.677 230.721 82.857 229.816 82.857C229.659 82.857 229.148 82.68 228.282 82.326C225.686 81.1853 223.523 80.615 221.792 80.615C220.101 80.615 218.941 80.7723 218.311 81.087C217.721 81.4017 217.426 81.8933 217.426 82.562C217.426 83.1913 217.859 83.7223 218.724 84.155C219.59 84.5483 220.652 84.922 221.91 85.276C223.208 85.5907 224.605 86.102 226.099 86.81C227.633 87.4787 229.049 88.285 230.347 89.229C231.645 90.1337 232.727 91.4317 233.592 93.123C234.458 94.8143 234.89 96.781 234.89 99.023C234.89 101.383 234.281 103.527 233.061 105.454C232.314 106.634 231.35 107.657 230.17 108.522ZM254.968 111C253.08 111 251.841 110.862 251.251 110.587C250.661 110.312 250.248 109.84 250.012 109.171L236.973 73.181C236.973 72.4337 238.369 71.5683 241.162 70.585C243.994 69.6017 246.845 69.11 249.717 69.11C253.414 69.11 255.381 70.2703 255.617 72.591L257.623 91.294H258.449L260.101 72.591C260.297 70.2703 262.952 69.11 268.066 69.11C270.032 69.11 271.35 69.3853 272.019 69.936C272.687 70.4473 273.061 71.1357 273.14 72.001L275.087 91.294H275.913L277.447 72.591C277.565 71.4503 278.902 70.585 281.459 69.995C284.055 69.405 286.611 69.11 289.129 69.11C291.685 69.11 293.416 69.4837 294.321 70.231C295.265 70.9783 295.737 71.765 295.737 72.591L283.111 109.171C282.678 110.39 279.767 111 274.379 111C272.766 111 271.684 110.862 271.134 110.587C270.583 110.312 270.209 109.84 270.013 109.171L266.945 98.905H266.237L263.11 109.171C262.756 110.39 260.042 111 254.968 111ZM315.126 109.584C315.126 110.017 313.926 110.371 311.527 110.646C309.127 110.882 306.708 111 304.27 111C301.87 111 300.336 110.902 299.668 110.705C298.999 110.469 298.665 110.095 298.665 109.584V72.886C298.665 72.0207 299.805 71.175 302.087 70.349C304.368 69.4837 306.925 69.051 309.757 69.051C312.274 69.051 313.926 69.582 314.713 70.644C314.988 71.0373 315.126 71.4307 315.126 71.824V109.584ZM344.943 109.584C344.943 110.017 343.723 110.371 341.285 110.646C338.885 110.882 336.466 111 334.028 111C331.628 111 330.094 110.902 329.426 110.705C328.796 110.469 328.482 110.095 328.482 109.584V84.214H320.281C319.848 84.214 319.474 83.6633 319.16 82.562C318.845 81.4607 318.688 79.8283 318.688 77.665C318.688 75.4623 318.924 73.4957 319.396 71.765C319.868 69.995 320.497 69.11 321.284 69.11H353.203C353.793 69.11 354.186 69.6607 354.383 70.762C354.619 71.8633 354.737 73.4563 354.737 75.541C354.737 77.6257 354.52 79.5923 354.088 81.441C353.655 83.2897 353.065 84.214 352.318 84.214H344.943V109.584ZM387.857 110.587C386.284 110.941 384.671 111.177 383.019 111.295C381.407 111.452 379.814 111.531 378.24 111.531C376.706 111.531 375.507 111.492 374.641 111.413C373.815 111.334 372.714 111.138 371.337 110.823C369.961 110.508 368.702 110.076 367.561 109.525C366.421 108.974 365.201 108.168 363.903 107.106C362.645 106.044 361.583 104.785 360.717 103.33C358.711 99.9473 357.708 95.5813 357.708 90.232C357.708 86.6527 358.259 83.4863 359.36 80.733C360.501 77.9797 361.858 75.8557 363.431 74.361C365.044 72.8663 366.873 71.6667 368.918 70.762C372.222 69.2673 375.546 68.52 378.889 68.52C383.688 68.52 387.13 68.9133 389.214 69.7C390.158 70.054 391.004 70.6047 391.751 71.352C392.499 72.0993 392.872 73.181 392.872 74.597C392.872 76.013 392.518 77.8027 391.81 79.966C391.142 82.1293 390.158 83.211 388.86 83.211C388.467 83.211 387.012 82.8963 384.494 82.267C381.977 81.6377 380.266 81.323 379.361 81.323C377.985 81.323 376.805 82.09 375.821 83.624C374.877 85.158 374.405 87.341 374.405 90.173C374.405 93.005 374.818 95.2077 375.644 96.781C376.51 98.3543 377.631 99.141 379.007 99.141C379.991 99.141 381.761 98.7477 384.317 97.961C386.913 97.135 388.428 96.722 388.86 96.722C390.08 96.722 391.024 97.843 391.692 100.085C392.4 102.327 392.754 104.136 392.754 105.513C392.754 106.89 392.322 107.991 391.456 108.817C390.63 109.604 389.431 110.194 387.857 110.587ZM413.478 109.289C413.478 109.8 412.279 110.213 409.879 110.528C407.519 110.843 405.12 111 402.681 111C400.282 111 398.728 110.862 398.02 110.587C397.352 110.312 397.017 109.879 397.017 109.289V73.004C397.017 72.0207 398.158 71.1357 400.439 70.349C402.721 69.523 405.199 69.11 407.873 69.11C411.61 69.11 413.478 69.995 413.478 71.765V84.745H418.729V73.004C418.729 72.0207 419.87 71.1357 422.151 70.349C424.472 69.523 426.97 69.11 429.644 69.11C433.342 69.11 435.19 69.995 435.19 71.765V109.289C435.19 109.8 433.991 110.213 431.591 110.528C429.192 110.843 426.793 111 424.393 111C421.994 111 420.44 110.862 419.732 110.587C419.064 110.312 418.729 109.879 418.729 109.289V95.778H413.478V109.289Z" fill="#FD0606"/>
<path d="M471.013 111H458.092C456.126 111 454.808 110.862 454.139 110.587C453.471 110.312 453.136 109.879 453.136 109.289V71.352C453.136 69.464 458.82 68.52 470.187 68.52C476.717 68.52 481.22 69.1493 483.698 70.408C486.216 71.706 487.828 73.358 488.536 75.364C488.93 76.544 489.126 77.9207 489.126 79.494C489.126 82.562 488.595 84.863 487.533 86.397C486.511 87.931 485.39 88.7963 484.17 88.993C486.019 89.3863 487.553 90.291 488.772 91.707C489.992 93.123 490.601 95.5223 490.601 98.905C490.601 102.838 489.402 105.749 487.002 107.637C484.918 109.289 481.732 110.331 477.444 110.764C475.635 110.921 473.491 111 471.013 111ZM471.072 85.276C473.078 85.276 474.081 83.9387 474.081 81.264C474.081 79.9267 473.806 78.9433 473.255 78.314C472.744 77.6453 472.154 77.311 471.485 77.311H469.597V85.276H471.072ZM469.597 102.209H471.072C473.078 102.209 474.081 100.872 474.081 98.197C474.081 96.8597 473.806 95.8763 473.255 95.247C472.744 94.5783 472.154 94.244 471.485 94.244H469.597V102.209ZM499.692 111C497.725 111 496.408 110.902 495.739 110.705C495.07 110.469 494.736 110.095 494.736 109.584V72.886C494.736 72.0207 495.877 71.175 498.158 70.349C500.439 69.4837 502.996 69.051 505.828 69.051C508.345 69.051 509.997 69.582 510.784 70.644C511.059 71.0373 511.197 71.4307 511.197 71.824V97.961C515.996 97.6463 519.614 97.489 522.053 97.489C522.879 97.489 523.292 98.8067 523.292 101.442C523.292 104.038 523.115 106.28 522.761 108.168C522.407 110.056 521.935 111 521.345 111H499.692ZM546.771 111.531C543.506 111.531 540.694 111.236 538.334 110.646C536.013 110.017 533.869 108.915 531.903 107.342C527.93 104.235 525.944 98.2757 525.944 89.465C525.944 85.7677 526.475 82.5423 527.537 79.789C528.638 77.0357 530.152 74.8527 532.08 73.24C535.856 70.0933 540.753 68.52 546.771 68.52C549.878 68.52 552.572 68.7953 554.854 69.346C557.174 69.8967 559.357 70.8997 561.403 72.355C565.533 75.3443 567.598 81.0477 567.598 89.465C567.598 97.017 565.729 102.583 561.993 106.162C558.256 109.741 553.182 111.531 546.771 111.531ZM544.824 101.442C545.296 101.993 545.945 102.268 546.771 102.268C547.597 102.268 548.246 101.993 548.718 101.442C549.19 100.852 549.583 99.6327 549.898 97.784C550.212 95.896 550.37 93.2803 550.37 89.937C550.37 86.5937 550.212 84.0173 549.898 82.208C549.583 80.3987 549.19 79.2187 548.718 78.668C548.246 78.1173 547.597 77.842 546.771 77.842C545.945 77.842 545.296 78.1173 544.824 78.668C544.352 79.2187 543.958 80.3987 543.644 82.208C543.329 84.0173 543.172 86.5937 543.172 89.937C543.172 93.2803 543.329 95.896 543.644 97.784C543.958 99.6327 544.352 100.852 544.824 101.442ZM584.227 111.472C582.89 111.472 581.651 111.334 580.51 111.059C579.37 110.784 578.17 110.213 576.911 109.348C575.692 108.443 574.65 107.263 573.784 105.808C571.818 102.504 570.834 97.5283 570.834 90.881C570.834 87.223 571.326 83.9977 572.309 81.205C573.293 78.4123 574.532 76.249 576.026 74.715C577.521 73.1417 579.311 71.8633 581.395 70.88C583.48 69.8967 585.427 69.2673 587.236 68.992C589.046 68.6773 590.973 68.52 593.018 68.52C597.738 68.52 601.062 68.933 602.989 69.759C604.917 70.5457 605.88 72.0797 605.88 74.361C605.88 76.1703 605.546 78.137 604.877 80.261C604.209 82.3457 603.225 83.388 601.927 83.388C601.613 83.388 600.275 83.093 597.915 82.503C595.555 81.8737 593.785 81.559 592.605 81.559C589.223 81.559 587.531 84.4107 587.531 90.114C587.531 92.9853 587.925 95.129 588.711 96.545C589.498 97.9217 590.481 98.6887 591.661 98.846V93.536C591.661 92.5527 592.664 91.648 594.67 90.822C596.676 89.996 598.604 89.583 600.452 89.583C602.301 89.583 603.638 89.701 604.464 89.937C605.33 90.173 605.92 90.5073 606.234 90.94C606.785 91.648 607.06 92.2773 607.06 92.828V109.171C607.06 109.682 606.018 110.095 603.933 110.41C601.888 110.725 599.744 110.882 597.502 110.882C595.3 110.882 593.903 110.784 593.313 110.587C592.723 110.351 592.389 109.741 592.31 108.758L591.897 105.277H591.425C591.15 106.968 590.442 108.424 589.301 109.643C588.2 110.862 586.509 111.472 584.227 111.472Z" fill="#F50707"/>
</svg>
